<svg id="Layer_1" data-name="Layer 1" xmlns="http://www.w3.org/2000/svg" xmlns:xlink="http://www.w3.org/1999/xlink" viewBox="0 0 1784 947.28"><defs><style>.cls-1{fill:#05042a;}.cls-10,.cls-11,.cls-12,.cls-13,.cls-14,.cls-15,.cls-16,.cls-17,.cls-18,.cls-19,.cls-2,.cls-20,.cls-21,.cls-22,.cls-23,.cls-24,.cls-25,.cls-26,.cls-27,.cls-28,.cls-29,.cls-3,.cls-30,.cls-31,.cls-32,.cls-33,.cls-34,.cls-35,.cls-36,.cls-37,.cls-38,.cls-39,.cls-4,.cls-40,.cls-41,.cls-42,.cls-43,.cls-44,.cls-45,.cls-46,.cls-47,.cls-48,.cls-49,.cls-5,.cls-50,.cls-51,.cls-52,.cls-53,.cls-54,.cls-55,.cls-56,.cls-57,.cls-58,.cls-59,.cls-6,.cls-60,.cls-61,.cls-62,.cls-63,.cls-64,.cls-65,.cls-66,.cls-67,.cls-68,.cls-69,.cls-7,.cls-70,.cls-71,.cls-72,.cls-73,.cls-74,.cls-75,.cls-76,.cls-77,.cls-78,.cls-79,.cls-8,.cls-80,.cls-81,.cls-82,.cls-83,.cls-84,.cls-85,.cls-86,.cls-87,.cls-88,.cls-89,.cls-9,.cls-90{fill:none;stroke-miterlimit:10;}.cls-2,.cls-49,.cls-50,.cls-51,.cls-52,.cls-53,.cls-54,.cls-55,.cls-56,.cls-57,.cls-58,.cls-59,.cls-60,.cls-61,.cls-62,.cls-63,.cls-64,.cls-65,.cls-66,.cls-67,.cls-68,.cls-69,.cls-70,.cls-71,.cls-72,.cls-73,.cls-74,.cls-75,.cls-76,.cls-77,.cls-78,.cls-79,.cls-80,.cls-81,.cls-82,.cls-83,.cls-84,.cls-85,.cls-86,.cls-87,.cls-88,.cls-89,.cls-90{stroke-width:0.25px;}.cls-2{stroke:url(#linear-gradient);}.cls-3{stroke-width:0.29px;stroke:url(#linear-gradient-2);}.cls-4{stroke-width:0.33px;stroke:url(#linear-gradient-3);}.cls-5{stroke-width:0.36px;stroke:url(#linear-gradient-4);}.cls-6{stroke-width:0.4px;stroke:url(#linear-gradient-5);}.cls-7{stroke-width:0.44px;stroke:url(#linear-gradient-6);}.cls-8{stroke-width:0.48px;stroke:url(#linear-gradient-7);}.cls-9{stroke-width:0.52px;stroke:url(#linear-gradient-8);}.cls-10{stroke-width:0.55px;stroke:url(#linear-gradient-9);}.cls-11{stroke-width:0.59px;stroke:url(#linear-gradient-10);}.cls-12{stroke-width:0.63px;stroke:url(#linear-gradient-11);}.cls-13{stroke-width:0.67px;stroke:url(#linear-gradient-12);}.cls-14{stroke-width:0.71px;stroke:url(#linear-gradient-13);}.cls-15{stroke-width:0.74px;stroke:url(#linear-gradient-14);}.cls-16{stroke-width:0.78px;stroke:url(#linear-gradient-15);}.cls-17{stroke-width:0.82px;stroke:url(#linear-gradient-16);}.cls-18{stroke-width:0.86px;stroke:url(#linear-gradient-17);}.cls-19{stroke-width:0.9px;stroke:url(#linear-gradient-18);}.cls-20{stroke-width:0.93px;stroke:url(#linear-gradient-19);}.cls-21{stroke-width:0.97px;stroke:url(#linear-gradient-20);}.cls-22{stroke-width:1.01px;stroke:url(#linear-gradient-21);}.cls-23{stroke-width:1.05px;stroke:url(#linear-gradient-22);}.cls-24{stroke-width:1.09px;stroke:url(#linear-gradient-23);}.cls-25{stroke-width:1.13px;stroke:url(#linear-gradient-24);}.cls-26{stroke-width:1.16px;stroke:url(#linear-gradient-25);}.cls-27{stroke-width:1.2px;stroke:url(#linear-gradient-26);}.cls-28{stroke-width:1.24px;stroke:url(#linear-gradient-27);}.cls-29{stroke-width:1.28px;stroke:url(#linear-gradient-28);}.cls-30{stroke-width:1.32px;stroke:url(#linear-gradient-29);}.cls-31{stroke-width:1.35px;stroke:url(#linear-gradient-30);}.cls-32{stroke-width:1.39px;stroke:url(#linear-gradient-31);}.cls-33{stroke-width:1.43px;stroke:url(#linear-gradient-32);}.cls-34{stroke-width:1.47px;stroke:url(#linear-gradient-33);}.cls-35{stroke-width:1.51px;stroke:url(#linear-gradient-34);}.cls-36{stroke-width:1.54px;stroke:url(#linear-gradient-35);}.cls-37{stroke-width:1.58px;stroke:url(#linear-gradient-36);}.cls-38{stroke-width:1.62px;stroke:url(#linear-gradient-37);}.cls-39{stroke-width:1.66px;stroke:url(#linear-gradient-38);}.cls-40{stroke-width:1.7px;stroke:url(#linear-gradient-39);}.cls-41{stroke-width:1.73px;stroke:url(#linear-gradient-40);}.cls-42{stroke-width:1.77px;stroke:url(#linear-gradient-41);}.cls-43{stroke-width:1.81px;stroke:url(#linear-gradient-42);}.cls-44{stroke-width:1.85px;stroke:url(#linear-gradient-43);}.cls-45{stroke-width:1.89px;stroke:url(#linear-gradient-44);}.cls-46{stroke-width:1.92px;stroke:url(#linear-gradient-45);}.cls-47{stroke-width:1.96px;stroke:url(#linear-gradient-46);}.cls-48{stroke-width:2px;stroke:url(#linear-gradient-47);}.cls-49{stroke:url(#linear-gradient-48);}.cls-50{stroke:url(#linear-gradient-49);}.cls-51{stroke:url(#linear-gradient-50);}.cls-52{stroke:url(#linear-gradient-51);}.cls-53{stroke:url(#linear-gradient-52);}.cls-54{stroke:url(#linear-gradient-53);}.cls-55{stroke:url(#linear-gradient-54);}.cls-56{stroke:url(#linear-gradient-55);}.cls-57{stroke:url(#linear-gradient-56);}.cls-58{stroke:url(#linear-gradient-57);}.cls-59{stroke:url(#linear-gradient-58);}.cls-60{stroke:url(#linear-gradient-59);}.cls-61{stroke:url(#linear-gradient-60);}.cls-62{stroke:url(#linear-gradient-61);}.cls-63{stroke:url(#linear-gradient-62);}.cls-64{stroke:url(#linear-gradient-63);}.cls-65{stroke:url(#linear-gradient-64);}.cls-66{stroke:url(#linear-gradient-65);}.cls-67{stroke:url(#linear-gradient-66);}.cls-68{stroke:url(#linear-gradient-67);}.cls-69{stroke:url(#linear-gradient-68);}.cls-70{stroke:url(#linear-gradient-69);}.cls-71{stroke:url(#linear-gradient-70);}.cls-72{stroke:url(#linear-gradient-71);}.cls-73{stroke:url(#linear-gradient-72);}.cls-74{stroke:url(#linear-gradient-73);}.cls-75{stroke:url(#linear-gradient-74);}.cls-76{stroke:url(#linear-gradient-75);}.cls-77{stroke:url(#linear-gradient-76);}.cls-78{stroke:url(#linear-gradient-77);}.cls-79{stroke:url(#linear-gradient-78);}.cls-80{stroke:url(#linear-gradient-79);}.cls-81{stroke:url(#linear-gradient-80);}.cls-82{stroke:url(#linear-gradient-81);}.cls-83{stroke:url(#linear-gradient-82);}.cls-84{stroke:url(#linear-gradient-83);}.cls-85{stroke:url(#linear-gradient-84);}.cls-86{stroke:url(#linear-gradient-85);}.cls-87{stroke:url(#linear-gradient-86);}.cls-88{stroke:url(#linear-gradient-87);}.cls-89{stroke:url(#linear-gradient-88);}.cls-90{stroke:url(#linear-gradient-89);}.cls-91{fill:#fff;}</style><linearGradient id="linear-gradient" x1="59.33" y1="169.04" x2="1881.13" y2="169.04" gradientTransform="matrix(1, -0.07, 0.06, 0.93, -76.42, 371.73)" gradientUnits="userSpaceOnUse"><stop offset="0" stop-color="#2a2688"/><stop offset="0.05" stop-color="#2d298d"/><stop offset="0.11" stop-color="#37319c"/><stop offset="0.18" stop-color="#473fb5"/><stop offset="0.25" stop-color="#5e52d7"/><stop offset="0.32" stop-color="#7868ff"/><stop offset="0.44" stop-color="#7669ff"/><stop offset="0.48" stop-color="#6f6eff"/><stop offset="0.51" stop-color="#6376ff"/><stop offset="0.53" stop-color="#5282ff"/><stop offset="0.55" stop-color="#3c92ff"/><stop offset="0.57" stop-color="#21a5ff"/><stop offset="0.59" stop-color="#02bbff"/><stop offset="0.59" stop-color="#00bcff"/><stop offset="0.63" stop-color="#23a2ff"/><stop offset="0.71" stop-color="#6572ff"/><stop offset="0.78" stop-color="#9c49ff"/><stop offset="0.85" stop-color="#c72aff"/><stop offset="0.91" stop-color="#e613ff"/><stop offset="0.96" stop-color="#f805ff"/><stop offset="1" stop-color="#f0f"/></linearGradient><linearGradient id="linear-gradient-2" x1="58.93" y1="168.06" x2="1880.42" y2="168.06" xlink:href="#linear-gradient"/><linearGradient id="linear-gradient-3" x1="58.52" y1="167.4" x2="1879.72" y2="167.4" xlink:href="#linear-gradient"/><linearGradient id="linear-gradient-4" x1="58.12" y1="167.15" x2="1879.02" y2="167.15" xlink:href="#linear-gradient"/><linearGradient id="linear-gradient-5" x1="57.72" y1="167.38" x2="1878.31" y2="167.38" xlink:href="#linear-gradient"/><linearGradient id="linear-gradient-6" x1="57.32" y1="168.14" x2="1877.61" y2="168.14" xlink:href="#linear-gradient"/><linearGradient id="linear-gradient-7" x1="56.92" y1="169.44" x2="1876.9" y2="169.44" xlink:href="#linear-gradient"/><linearGradient id="linear-gradient-8" x1="56.52" y1="171.26" x2="1876.2" y2="171.26" xlink:href="#linear-gradient"/><linearGradient id="linear-gradient-9" x1="56.12" y1="173.59" x2="1875.49" y2="173.59" xlink:href="#linear-gradient"/><linearGradient id="linear-gradient-10" x1="55.71" y1="176.38" x2="1874.79" y2="176.38" xlink:href="#linear-gradient"/><linearGradient id="linear-gradient-11" x1="55.31" y1="179.58" x2="1874.08" y2="179.58" xlink:href="#linear-gradient"/><linearGradient id="linear-gradient-12" x1="54.91" y1="183.14" x2="1873.38" y2="183.14" xlink:href="#linear-gradient"/><linearGradient id="linear-gradient-13" x1="54.51" y1="187.03" x2="1872.67" y2="187.03" xlink:href="#linear-gradient"/><linearGradient id="linear-gradient-14" x1="54.11" y1="191.21" x2="1871.96" y2="191.21" xlink:href="#linear-gradient"/><linearGradient id="linear-gradient-15" x1="53.71" y1="195.65" x2="1871.25" y2="195.65" xlink:href="#linear-gradient"/><linearGradient id="linear-gradient-16" x1="53.31" y1="200.31" x2="1870.55" y2="200.31" xlink:href="#linear-gradient"/><linearGradient id="linear-gradient-17" x1="52.9" y1="205.17" x2="1869.84" y2="205.17" xlink:href="#linear-gradient"/><linearGradient id="linear-gradient-18" x1="52.5" y1="210.21" x2="1869.13" y2="210.21" xlink:href="#linear-gradient"/><linearGradient id="linear-gradient-19" x1="52.1" y1="215.41" x2="1868.42" y2="215.41" xlink:href="#linear-gradient"/><linearGradient id="linear-gradient-20" x1="51.7" y1="220.51" x2="1867.72" y2="220.51" xlink:href="#linear-gradient"/><linearGradient id="linear-gradient-21" x1="51.3" y1="225.16" x2="1867.02" y2="225.16" xlink:href="#linear-gradient"/><linearGradient id="linear-gradient-22" x1="50.9" y1="229.43" x2="1866.32" y2="229.43" xlink:href="#linear-gradient"/><linearGradient id="linear-gradient-23" x1="50.5" y1="233.38" x2="1865.62" y2="233.38" xlink:href="#linear-gradient"/><linearGradient id="linear-gradient-24" x1="50.09" y1="237.04" x2="1864.93" y2="237.04" xlink:href="#linear-gradient"/><linearGradient id="linear-gradient-25" x1="49.69" y1="240.45" x2="1864.23" y2="240.45" xlink:href="#linear-gradient"/><linearGradient id="linear-gradient-26" x1="49.29" y1="235.24" x2="1863.54" y2="235.24" xlink:href="#linear-gradient"/><linearGradient id="linear-gradient-27" x1="48.89" y1="229.49" x2="1862.84" y2="229.49" xlink:href="#linear-gradient"/><linearGradient id="linear-gradient-28" x1="48.49" y1="223.61" x2="1862.15" y2="223.61" xlink:href="#linear-gradient"/><linearGradient id="linear-gradient-29" x1="48.09" y1="217.6" x2="1861.46" y2="217.6" xlink:href="#linear-gradient"/><linearGradient id="linear-gradient-30" x1="47.69" y1="211.46" x2="1860.77" y2="211.46" xlink:href="#linear-gradient"/><linearGradient id="linear-gradient-31" x1="47.29" y1="205.2" x2="1860.08" y2="205.2" xlink:href="#linear-gradient"/><linearGradient id="linear-gradient-32" x1="46.88" y1="198.84" x2="1859.4" y2="198.84" xlink:href="#linear-gradient"/><linearGradient id="linear-gradient-33" x1="46.48" y1="192.36" x2="1858.72" y2="192.36" xlink:href="#linear-gradient"/><linearGradient id="linear-gradient-34" x1="46.08" y1="185.78" x2="1858.04" y2="185.78" xlink:href="#linear-gradient"/><linearGradient id="linear-gradient-35" x1="45.68" y1="179.11" x2="1857.36" y2="179.11" xlink:href="#linear-gradient"/><linearGradient id="linear-gradient-36" x1="45.28" y1="172.35" x2="1856.69" y2="172.35" xlink:href="#linear-gradient"/><linearGradient id="linear-gradient-37" x1="44.88" y1="165.51" x2="1856.02" y2="165.51" xlink:href="#linear-gradient"/><linearGradient id="linear-gradient-38" x1="44.48" y1="162.49" x2="1855.36" y2="162.49" xlink:href="#linear-gradient"/><linearGradient id="linear-gradient-39" x1="44.07" y1="159.64" x2="1854.7" y2="159.64" xlink:href="#linear-gradient"/><linearGradient id="linear-gradient-40" x1="43.67" y1="156.69" x2="1854.04" y2="156.69" xlink:href="#linear-gradient"/><linearGradient id="linear-gradient-41" x1="43.27" y1="153.66" x2="1853.39" y2="153.66" xlink:href="#linear-gradient"/><linearGradient id="linear-gradient-42" x1="42.87" y1="150.55" x2="1852.75" y2="150.55" xlink:href="#linear-gradient"/><linearGradient id="linear-gradient-43" x1="42.47" y1="147.37" x2="1852.1" y2="147.37" xlink:href="#linear-gradient"/><linearGradient id="linear-gradient-44" x1="42.07" y1="144.11" x2="1851.47" y2="144.11" xlink:href="#linear-gradient"/><linearGradient id="linear-gradient-45" x1="41.67" y1="140.79" x2="1850.83" y2="140.79" xlink:href="#linear-gradient"/><linearGradient id="linear-gradient-46" x1="41.27" y1="137.41" x2="1850.19" y2="137.41" xlink:href="#linear-gradient"/><linearGradient id="linear-gradient-47" x1="40.86" y1="133.98" x2="1849.56" y2="133.98" xlink:href="#linear-gradient"/><linearGradient id="linear-gradient-48" x1="-10.96" y1="534.16" x2="1787.48" y2="534.16" gradientUnits="userSpaceOnUse"><stop offset="0" stop-color="#3f8eff"/><stop offset="0.06" stop-color="#438bff"/><stop offset="0.12" stop-color="#4f84ff"/><stop offset="0.18" stop-color="#6277ff"/><stop offset="0.22" stop-color="#7868ff"/><stop offset="0.24" stop-color="#7f62ff"/><stop offset="0.27" stop-color="#9452ff"/><stop offset="0.31" stop-color="#b638ff"/><stop offset="0.35" stop-color="#e415ff"/><stop offset="0.37" stop-color="#f0f"/><stop offset="0.76" stop-color="#3d8fff"/><stop offset="1" stop-color="#00bcff"/></linearGradient><linearGradient id="linear-gradient-49" x1="-11.05" y1="536.52" x2="1787.44" y2="536.52" xlink:href="#linear-gradient-48"/><linearGradient id="linear-gradient-50" x1="-11.15" y1="538.88" x2="1787.41" y2="538.88" xlink:href="#linear-gradient-48"/><linearGradient id="linear-gradient-51" x1="-11.25" y1="541.23" x2="1787.38" y2="541.23" xlink:href="#linear-gradient-48"/><linearGradient id="linear-gradient-52" x1="-11.34" y1="543.59" x2="1787.34" y2="543.59" xlink:href="#linear-gradient-48"/><linearGradient id="linear-gradient-53" x1="-11.44" y1="545.95" x2="1787.31" y2="545.95" xlink:href="#linear-gradient-48"/><linearGradient id="linear-gradient-54" x1="-11.53" y1="548.3" x2="1787.27" y2="548.3" xlink:href="#linear-gradient-48"/><linearGradient id="linear-gradient-55" x1="-11.63" y1="550.66" x2="1787.24" y2="550.66" xlink:href="#linear-gradient-48"/><linearGradient id="linear-gradient-56" x1="-11.72" y1="548.42" x2="1787.21" y2="548.42" xlink:href="#linear-gradient-48"/><linearGradient id="linear-gradient-57" x1="-11.82" y1="543.19" x2="1787.17" y2="543.19" xlink:href="#linear-gradient-48"/><linearGradient id="linear-gradient-58" x1="-11.91" y1="537.85" x2="1787.14" y2="537.85" xlink:href="#linear-gradient-48"/><linearGradient id="linear-gradient-59" x1="-12" y1="532.4" x2="1787.1" y2="532.4" xlink:href="#linear-gradient-48"/><linearGradient id="linear-gradient-60" x1="-12.1" y1="526.83" x2="1787.07" y2="526.83" xlink:href="#linear-gradient-48"/><linearGradient id="linear-gradient-61" x1="-12.19" y1="521.17" x2="1787.03" y2="521.17" xlink:href="#linear-gradient-48"/><linearGradient id="linear-gradient-62" x1="-12.28" y1="515.41" x2="1787" y2="515.41" xlink:href="#linear-gradient-48"/><linearGradient id="linear-gradient-63" x1="-12.37" y1="509.56" x2="1786.96" y2="509.56" xlink:href="#linear-gradient-48"/><linearGradient id="linear-gradient-64" x1="-12.46" y1="503.63" x2="1786.93" y2="503.63" xlink:href="#linear-gradient-48"/><linearGradient id="linear-gradient-65" x1="-12.56" y1="497.61" x2="1786.89" y2="497.61" xlink:href="#linear-gradient-48"/><linearGradient id="linear-gradient-66" x1="-12.65" y1="491.52" x2="1786.85" y2="491.52" xlink:href="#linear-gradient-48"/><linearGradient id="linear-gradient-67" x1="-12.74" y1="485.37" x2="1786.82" y2="485.37" xlink:href="#linear-gradient-48"/><linearGradient id="linear-gradient-68" x1="-12.83" y1="479.14" x2="1786.78" y2="479.14" xlink:href="#linear-gradient-48"/><linearGradient id="linear-gradient-69" x1="-12.92" y1="472.86" x2="1786.74" y2="472.86" xlink:href="#linear-gradient-48"/><linearGradient id="linear-gradient-70" x1="-13.01" y1="467.02" x2="1786.7" y2="467.02" xlink:href="#linear-gradient-48"/><linearGradient id="linear-gradient-71" x1="-13.12" y1="464.38" x2="1786.67" y2="464.38" xlink:href="#linear-gradient-48"/><linearGradient id="linear-gradient-72" x1="-13.23" y1="468.44" x2="1786.63" y2="468.44" xlink:href="#linear-gradient-48"/><linearGradient id="linear-gradient-73" x1="-13.33" y1="473.02" x2="1786.59" y2="473.02" xlink:href="#linear-gradient-48"/><linearGradient id="linear-gradient-74" x1="-13.44" y1="478.16" x2="1786.54" y2="478.16" xlink:href="#linear-gradient-48"/><linearGradient id="linear-gradient-75" x1="-13.54" y1="483.87" x2="1786.51" y2="483.87" xlink:href="#linear-gradient-48"/><linearGradient id="linear-gradient-76" x1="-13.64" y1="489.74" x2="1786.48" y2="489.74" xlink:href="#linear-gradient-48"/><linearGradient id="linear-gradient-77" x1="-13.75" y1="495.58" x2="1786.46" y2="495.58" xlink:href="#linear-gradient-48"/><linearGradient id="linear-gradient-78" x1="-13.85" y1="501.38" x2="1786.44" y2="501.38" xlink:href="#linear-gradient-48"/><linearGradient id="linear-gradient-79" x1="-13.96" y1="507.15" x2="1786.42" y2="507.15" xlink:href="#linear-gradient-48"/><linearGradient id="linear-gradient-80" x1="-14.06" y1="512.9" x2="1786.39" y2="512.9" xlink:href="#linear-gradient-48"/><linearGradient id="linear-gradient-81" x1="-14.16" y1="518.62" x2="1786.37" y2="518.62" xlink:href="#linear-gradient-48"/><linearGradient id="linear-gradient-82" x1="-14.26" y1="524.31" x2="1786.35" y2="524.31" xlink:href="#linear-gradient-48"/><linearGradient id="linear-gradient-83" x1="-14.36" y1="529.99" x2="1786.32" y2="529.99" xlink:href="#linear-gradient-48"/><linearGradient id="linear-gradient-84" x1="-14.47" y1="535.64" x2="1786.3" y2="535.64" xlink:href="#linear-gradient-48"/><linearGradient id="linear-gradient-85" x1="-14.57" y1="541.2" x2="1786.27" y2="541.2" xlink:href="#linear-gradient-48"/><linearGradient id="linear-gradient-86" x1="-14.67" y1="546.83" x2="1786.24" y2="546.83" xlink:href="#linear-gradient-48"/><linearGradient id="linear-gradient-87" x1="-14.77" y1="552.45" x2="1786.22" y2="552.45" xlink:href="#linear-gradient-48"/><linearGradient id="linear-gradient-88" x1="-14.87" y1="558.05" x2="1786.19" y2="558.05" xlink:href="#linear-gradient-48"/><linearGradient id="linear-gradient-89" x1="-14.97" y1="563.64" x2="1786.16" y2="563.64" xlink:href="#linear-gradient-48"/></defs><rect class="cls-1" x="-0.5" y="-0.17" width="1784.92" height="945.29"/><path class="cls-2" d="M-8.2,503.16c81.34-237.33,462.35,905.56,984.92,88,165.33-258.66,86.12-462.85,807.7-589.33"/><path class="cls-3" d="M1784.49,13.69c-707.58,121.2-639.78,315.71-808.64,578.74C821.32,833.37,682.09,889.05,557.57,873.64,259.57,836.75,48.39,330.6-8,511.19"/><path class="cls-4" d="M1784.56,25.54C1091,141.48,1147.38,326.31,975,593.69,818.74,836.48,681.05,876.46,556.61,858.29,262.27,815.3,47.42,326-7.91,519.21"/><path class="cls-5" d="M1784.64,37.4C1105,148.06,1150,323.21,974.11,595c-158,244.64-294.08,268.94-418.45,248C265,794,46.46,321.33-7.76,527.23"/><path class="cls-6" d="M1784.71,49.25c-665.61,105.39-632,270.87-811.47,547C813.58,842.7,679.05,851.35,554.7,827.58,267.82,772.74,45.5,316.7-7.62,535.25"/><path class="cls-7" d="M1784.79,61.11C1133.17,161.23,1155.36,317,972.37,597.48,811,845.81,678.1,838.84,553.74,812.22,270.67,751.64,44.53,312.06-7.47,543.27"/><path class="cls-8" d="M1784.86,73c-637.63,94.85-626.83,241-813.36,525.79C808.43,848.92,677.18,826.37,552.79,796.87,273.55,730.65,43.57,307.43-7.33,551.29"/><path class="cls-9" d="M1784.93,84.82c-623.64,89.58-624.24,226-814.3,515.19C805.85,852,676.29,813.94,551.83,781.52,276.46,709.78,42.6,302.79-7.18,559.32"/><path class="cls-10" d="M1785,96.67C1175.36,181,1163.35,307.74,969.76,601.27,803.27,855.15,675.41,801.54,550.88,766.16,279.39,689,41.64,298.16-7,567.34"/><path class="cls-11" d="M1785.08,108.53c-595.66,79-619.07,196.12-816.19,494-168.2,255.72-294.34,186.65-419,148.27C282.35,668.41,40.68,293.52-6.89,575.36"/><path class="cls-12" d="M1785.15,120.38C1203.49,194.15,1168.68,301.55,968,603.8,798.12,861.37,673.71,776.88,549,735.46,285.31,647.91,39.71,288.89-6.75,583.38"/><path class="cls-13" d="M1785.23,132.24c-567.68,68.49-613.89,166.22-818.08,472.82C795.54,864.48,672.88,764.61,548,720.1,288.28,627.53,38.75,284.25-6.6,591.4"/><path class="cls-14" d="M1785.3,144.09c-553.68,63.22-611.3,151.28-819,462.24C793,867.59,672.05,752.39,547.05,704.75,291.25,607.27,37.79,279.62-6.46,599.42"/><path class="cls-15" d="M1785.37,156c-539.69,58-608.7,136.32-820,451.64-175,263.11-294.18,132.62-419.32,81.81C294.21,587.12,36.82,275-6.31,607.45"/><path class="cls-16" d="M1785.45,167.8c-525.71,52.68-606.12,121.38-820.91,441.05C787.8,873.81,670.41,728.07,545.14,674,297.16,567.09,35.86,270.35-6.17,615.47"/><path class="cls-17" d="M1785.52,179.66C1273.81,227.07,1182,286.08,963.67,610.12,785.22,876.93,669.59,716,544.18,658.69,300.09,547.17,34.9,265.71-6,623.49"/><path class="cls-18" d="M1785.59,191.51C1287.87,233.65,1184.65,283,962.8,611.38c-180.15,268.66-294,92.56-419.57,32C303,527.35,33.93,261.08-5.88,631.51"/><path class="cls-19" d="M1785.67,203.37c-483.73,36.86-598.35,76.52-823.74,409.27C780.07,883.15,667.92,692,542.27,628,305.88,507.64,33,256.44-5.73,639.53"/><path class="cls-20" d="M1785.74,215.22C1316,246.82,1190,276.8,961.06,613.91c-183.57,272.35-294,66.09-419.75-1.28C308.72,488,32,251.81-5.59,647.55"/><path class="cls-21" d="M1785.82,227.08c-455.75,26.32-593.18,46.63-825.63,388.09-185.28,274.2-294,52.92-419.83-17.9C311.53,468.49,31,247.17-5.44,655.58"/><path class="cls-22" d="M1785.89,238.93C1344.13,260,1195.3,270.61,959.32,616.44c-187,276-294,39.79-419.92-34.52C314.3,449.05,30.08,242.54-5.3,663.6"/><path class="cls-23" d="M1786,250.79c-427.77,15.78-588,16.73-827.51,366.91-188.69,277.89-294.07,26.71-420-51.13C317,429.69,29.11,237.9-5.15,671.62"/><path class="cls-24" d="M1786,262.64c-413.78,10.51-585.41,1.78-828.46,356.32-190.4,279.74-294.15,13.68-420.09-67.75C319.7,410.4,28.15,233.27-5,679.64"/><path class="cls-25" d="M1786.11,274.5c-399.79,5.24-582.82-13.17-829.4,345.73-192.11,281.59-294.25.68-420.18-84.37C322.32,391.18,27.19,228.63-4.86,687.66"/><path class="cls-26" d="M1786.18,286.35c-385.79,0-580.22-28.12-830.34,335.14C762,904.93,661.45,609.21,535.58,520.5,324.9,372,26.22,224-4.72,695.69"/><path class="cls-27" d="M1786.26,298.21C1414.45,292.9,1208.62,255.14,955,622.75,759.44,908,660.41,597.56,534.62,505.15,327.42,352.93,25.26,219.36-4.57,703.71"/><path class="cls-28" d="M1786.33,310.06c-357.81-10.57-575-58-832.23,314C756.87,911.15,659.33,585.94,533.66,489.8,329.88,333.88,24.3,214.73-4.43,711.73"/><path class="cls-29" d="M1786.4,321.92c-343.82-15.85-572.46-73-833.17,303.36-198.94,289-295-50.92-420.52-150.84C332.29,314.88,23.33,210.09-4.28,719.75"/><path class="cls-30" d="M1786.48,333.77c-329.84-21.11-569.87-87.91-834.12,292.77C751.71,917.37,657.05,562.81,531.75,459.09,334.64,295.92,22.37,205.46-4.14,727.77"/><path class="cls-31" d="M1786.55,345.63c-315.84-26.39-567.28-102.87-835.06,282.18C749.13,920.48,655.85,551.3,530.8,443.74,336.94,277,21.4,200.82-4,735.79"/><path class="cls-32" d="M1786.63,357.48c-301.86-31.66-564.7-117.81-836,271.59-204.07,294.53-296-89.26-420.78-200.69C339.17,258.09,20.44,196.19-3.85,743.82"/><path class="cls-33" d="M1786.7,369.34c-287.86-36.93-562.11-132.77-836.94,261C744,926.71,653.31,528.35,528.88,413,341.35,239.22,19.48,191.55-3.7,751.84"/><path class="cls-34" d="M1786.77,381.19C1512.9,339,1227.26,233.48,948.89,631.6,741.4,929.82,652,516.91,527.93,397.68,343.47,220.37,18.51,186.92-3.56,759.86"/><path class="cls-35" d="M1786.85,393.05C1527,345.57,1229.92,230.39,948,632.86,738.82,932.93,650.59,505.5,527,382.32,345.53,201.53,17.55,182.28-3.42,767.88"/><path class="cls-36" d="M1786.92,404.9C1541,352.16,1232.58,227.29,947.15,634.13,736.24,936,649.17,494.11,526,367,347.53,182.71,16.59,177.65-3.27,775.9"/><path class="cls-37" d="M1787,416.76c-231.89-58-551.74-192.56-840.71,218.63C733.66,939.15,647.69,482.73,525.06,351.61,349.48,163.89,15.62,173-3.13,783.92"/><path class="cls-38" d="M1787.07,428.61c-217.91-63.28-549.16-207.51-841.66,208C731.09,942.26,646.17,471.37,524.1,336.26,351.37,145.07,14.66,168.38-3,792"/><path class="cls-39" d="M1787.14,440.47C1583.22,371.91,1240.57,218,944.54,637.92c-216,307.45-299.94-177.89-421.39-317C353.21,126.25,13.7,163.74-2.84,800"/><path class="cls-40" d="M1787.21,452.32c-189.92-73.83-544-237.41-843.54,186.86C725.93,948.49,643,448.69,522.19,305.55,355,107.43,12.73,159.11-2.69,808"/><path class="cls-41" d="M1787.29,464.18c-175.94-79.1-541.39-252.36-844.49,176.26C723.35,951.6,641.33,437.37,521.23,290.2,356.73,88.6,11.77,154.47-2.55,816"/><path class="cls-42" d="M1787.36,476c-161.94-84.37-538.8-267.3-845.43,165.68-221.16,313-302.31-215.65-421.65-366.86C358.42,69.77,10.8,149.84-2.4,824"/><path class="cls-43" d="M1787.43,487.89c-148-89.65-536.21-282.26-846.37,155.08C718.2,957.82,637.88,414.75,519.32,259.49,360.05,50.92,9.84,145.2-2.26,832.05"/><path class="cls-44" d="M1787.51,499.74c-134-94.91-533.63-297.2-847.32,144.49-224.57,316.7-304.1-240.79-421.82-400.09C361.64,32.05,8.88,140.57-2.11,840.08"/><path class="cls-45" d="M1787.58,511.6c-120-100.19-531-312.16-848.26,133.9C713,964,634.25,392.14,517.41,228.78,363.19,13.17,7.91,135.93-2,848.1"/><path class="cls-46" d="M1787.66,523.45c-106-105.45-528.45-327.1-849.21,123.31-228,320.39-306.07-265.93-422-433.33C364.69-5.73,7,131.3-1.82,856.12"/><path class="cls-47" d="M1787.73,535.31c-92-110.73-525.86-342.06-850.15,112.72C707.88,970.27,630.47,369.53,515.5,198.08,366.15-24.65,6,126.66-1.68,864.14"/><path class="cls-48" d="M1787.8,547.16c-78-116-523.26-357-851.09,102.13C705.31,973.38,628.52,358.22,514.54,182.72,367.57-43.59,5,122-1.53,872.16"/><path class="cls-49" d="M-10.86,821.16c420-487.62,749.06-483.59,937.33-471.44,250.67,16.19,339.58,466,860.91-102.56"/><path class="cls-50" d="M-11,811.05c417.43-465,746.63-464.6,934.08-459.7C1173,357.3,1274.51,809.3,1787.35,262"/><path class="cls-51" d="M-11.06,800.93C403.8,358.61,733.14,355.76,919.77,353c249.12-3.71,363.19,449.9,867.55-76.16"/><path class="cls-52" d="M-11.16,790.81c412.3-419.67,741.8-426,927.58-436.2,248.38-13.68,375,441.85,870.87-63"/><path class="cls-53" d="M-11.25,780.7c409.72-397,739.4-406.78,924.32-424.46,247.66-23.68,386.8,433.8,874.18-49.76"/><path class="cls-54" d="M-11.35,770.58C395.8,396.21,725.68,383,909.72,357.87c247-33.68,398.61,425.75,877.5-36.56"/><path class="cls-55" d="M-11.45,760.46C393.14,408.75,723.21,392,906.37,359.5c246.28-43.72,410.41,417.7,880.82-23.36"/><path class="cls-56" d="M-11.55,750.35C390.47,421.28,720.76,401,903,361.12c245.61-53.76,422.22,409.66,884.14-10.15"/><path class="cls-57" d="M-11.64,740.23C387.8,433.82,718.31,410,899.67,362.75c244.94-63.84,434,401.61,887.45,3.05"/><path class="cls-58" d="M-11.74,730.11C385.14,446.35,715.87,419,896.32,364.38c244.29-73.94,445.83,393.56,890.77,16.25"/><path class="cls-59" d="M-11.84,720C382.47,458.89,713.43,428,893,366c243.64-84.07,457.63,385.51,894.09,29.45"/><path class="cls-60" d="M-11.94,709.88C379.8,471.42,711,436.91,889.62,367.64c243-94.23,469.44,377.46,897.41,42.65"/><path class="cls-61" d="M-12,699.76C377.14,484,708.55,445.84,886.27,369.27c242.33-104.4,481.24,369.41,900.72,55.84"/><path class="cls-62" d="M-12.13,689.65C374.47,496.49,706.1,454.75,882.92,370.9c241.67-114.6,493.05,361.36,904,69"/><path class="cls-63" d="M-12.23,679.53c384-170.5,715.88-215.89,891.8-307,241-124.81,504.85,353.32,907.36,82.25"/><path class="cls-64" d="M-12.33,669.41C369.14,521.56,701.19,472.52,876.23,374.15c240.32-135.06,516.65,345.27,910.67,95.45"/><path class="cls-65" d="M-12.43,659.3c378.9-125.2,711.16-177.92,885.31-283.52,239.63-145.31,528.45,337.22,914,108.65"/><path class="cls-66" d="M-12.52,649.18C363.8,546.63,696.25,490.24,869.53,377.41c238.94-155.59,540.26,329.17,917.3,121.85"/><path class="cls-67" d="M-12.62,639.06c373.76-79.89,706.39-140,878.8-260,238.23-165.88,552.07,321.12,920.62,135.05"/><path class="cls-68" d="M-12.72,629c371.19-57.25,704-121,875.55-248.28,237.5-176.18,563.87,313.07,923.94,148.25"/><path class="cls-69" d="M-12.82,618.83c368.62-34.59,701.6-102.08,872.3-236.53,236.77-186.49,575.68,305,927.25,161.45"/><path class="cls-70" d="M-12.91,608.71c366.05-11.94,699.18-83.14,869-224.79,236-196.81,587.48,297,930.57,174.66"/><path class="cls-71" d="M-13,598.6c363.48,10.7,696.75-64.22,865.79-213C1088,178.42,1452.07,674.48,1786.67,573.41"/><path class="cls-72" d="M-13.11,588.48c360.91,33.36,694.32-45.28,862.54-201.3,234.48-217.47,611.09,280.88,937.21,201.06"/><path class="cls-73" d="M-13.21,578.36c358.35,56,691.88-26.36,859.29-189.55C1079.77,161,1469,661.64,1786.6,603.07"/><path class="cls-74" d="M-13.3,568.25c355.77,78.66,689.42-7.44,856-177.81,232.88-238.15,634.7,264.78,943.84,227.46"/><path class="cls-75" d="M-13.4,558.13c353.2,101.31,687,11.49,852.78-166.06,232.07-248.5,646.51,256.73,947.16,240.65"/><path class="cls-76" d="M-13.5,548C337.14,672,671,578.42,836,393.7c231.24-258.85,658.31,248.68,950.48,253.85"/><path class="cls-77" d="M-13.6,537.9c348.07,146.61,682,49.32,846.28-142.58C1063.09,126.14,1502.8,636,1786.47,662.38"/><path class="cls-78" d="M-13.69,527.78C331.8,697.05,665.85,596,829.33,397c229.56-279.53,681.92,232.59,957.11,280.26"/><path class="cls-79" d="M-13.79,517.66C329.14,709.58,663.26,604.83,826,398.58,1054.68,108.7,1519.71,623.12,1786.41,692"/><path class="cls-80" d="M-13.89,507.55C326.47,722.12,660.67,613.64,822.63,400.21,1050.46,100,1528.16,616.7,1786.38,706.87"/><path class="cls-81" d="M-14,497.43c337.79,237.22,672.06,125,833.27-95.59,227-310.57,717.34,208.44,967.06,319.86"/><path class="cls-82" d="M-14.08,487.31c335.22,259.88,669.54,143.94,830-83.84C1042,82.55,1545.07,603.86,1786.31,736.53"/><path class="cls-83" d="M-14.18,477.2c332.65,282.52,667,162.86,826.76-72.1,225.19-331.26,740.95,192.34,973.7,346.26"/><path class="cls-84" d="M-14.28,467.08C315.8,772.26,650.24,648.87,809.23,406.72,1033.52,65.13,1562,591,1786.25,766.19"/><path class="cls-85" d="M-14.38,457c327.52,327.83,662,200.73,820.26-48.61C1029.27,56.42,1570.44,584.6,1786.21,781"/><path class="cls-86" d="M-14.47,446.85c324.94,350.48,659.06,219.4,817-36.87,221.9-362.61,776.37,168.2,983.65,385.87"/><path class="cls-87" d="M-14.57,436.73C307.8,809.86,642.06,675.14,799.18,411.61c221.12-372.85,788.17,160.15,987,399.07"/><path class="cls-88" d="M-14.67,426.61C305.14,822.4,639.53,684,795.83,413.24c220.35-383.09,800,152.1,990.29,412.26"/><path class="cls-89" d="M-14.77,416.5C302.47,834.93,637,692.9,792.49,414.87c219.56-393.33,811.77,144,993.59,425.46"/><path class="cls-90" d="M-14.86,406.38c314.66,441.09,649.33,295.41,804,10.12,218.78-403.57,823.58,136,996.91,438.66"/><g id="c39227fc-f6ec-4599-ba34-67d104be693f"><path class="cls-91" d="M808.24,778.24h0q10.93,0,17.17,5.21h0q6.24,5.2,6.24,14.37h0q0,9.1-6.24,14.31h0q-6.24,5.22-17.17,5.21H794.38v17h-8V778.24ZM808,810.42h0q7.61,0,11.62-3.27h0q4-3.25,4-9.33h0q0-6.12-4-9.33h0q-4-3.27-11.62-3.26H794.38v25.19Zm50.55-18.95h0q8.82,0,13.51,4.35h0q4.7,4.29,4.7,12.88h0v25.65H869.5v-5.61h0a12.21,12.21,0,0,1-5.5,4.52h0a20.45,20.45,0,0,1-8.47,1.6h0c-4.74,0-8.53-1.16-11.4-3.49h0a11,11,0,0,1-4.29-9h0a11.08,11.08,0,0,1,4.06-9h0q4.13-3.44,13-3.44h12.2v-1.49h0c0-3.32-1-5.86-2.92-7.61h0c-1.91-1.8-4.74-2.69-8.48-2.69h0a22.19,22.19,0,0,0-7.38,1.26h0a19,19,0,0,0-6.07,3.32h0L841,796.91h0a22.57,22.57,0,0,1,7.85-4h0a32,32,0,0,1,9.67-1.43Zm-1.72,37.44h0a14.39,14.39,0,0,0,7.62-1.95h0a11.36,11.36,0,0,0,4.64-5.61h0v-5.89H857.24q-9.78,0-9.79,6.58h0a5.92,5.92,0,0,0,2.47,5h0a11.56,11.56,0,0,0,6.92,1.83ZM898.41,799h0a12.86,12.86,0,0,1,6-5.61h0a21.24,21.24,0,0,1,9.51-1.94h0v7.44h0c-.42,0-1-.06-1.72-.06h0q-6.3,0-9.85,3.72h0q-3.56,3.72-3.55,10.65h0v21.13H891V791.87h7.39Zm41-7.55h0q8.82,0,13.45,4.35h0q4.7,4.29,4.7,12.88h0v25.65h-7.27v-5.61h0a12.21,12.21,0,0,1-5.5,4.52h0a20.42,20.42,0,0,1-8.47,1.6h0q-7.09,0-11.39-3.49h0a11,11,0,0,1-4.3-9h0a11.09,11.09,0,0,1,4.07-9h0c2.74-2.29,7.08-3.44,13-3.44h12.2v-1.49h0c0-3.32-1-5.86-2.86-7.61h0c-1.95-1.8-4.8-2.69-8.54-2.69h0a22.23,22.23,0,0,0-7.38,1.26h0a19,19,0,0,0-6.07,3.32h0l-3.21-5.78h0a22.57,22.57,0,0,1,7.85-4h0a32.26,32.26,0,0,1,9.73-1.43Zm-1.77,37.44h0a14.38,14.38,0,0,0,7.61-1.95h0a11.36,11.36,0,0,0,4.64-5.61h0v-5.89H938q-9.79,0-9.79,6.58h0a5.94,5.94,0,0,0,2.46,5h0a11.59,11.59,0,0,0,6.93,1.83Zm34.23,5.44V774.86h7.67v59.49Zm22.33,0V774.86h7.73v59.49Zm60.74-21h0c0,.61,0,1.39-.11,2.34h-34.47a13.28,13.28,0,0,0,4.93,9.05h0a16,16,0,0,0,10.42,3.38h0A15.89,15.89,0,0,0,1048,823h0l4.23,5h0a18.88,18.88,0,0,1-7.21,5.15h0a24.57,24.57,0,0,1-9.56,1.77h0a24.71,24.71,0,0,1-11.91-2.8h0a19.72,19.72,0,0,1-8.07-7.73h0a22.09,22.09,0,0,1-2.86-11.22h0a22.42,22.42,0,0,1,2.74-11.11h0a20.44,20.44,0,0,1,7.62-7.79h0a22,22,0,0,1,11-2.74h0a21.23,21.23,0,0,1,10.82,2.74h0a19.19,19.19,0,0,1,7.44,7.79h0a23.19,23.19,0,0,1,2.69,11.34ZM1034,798h0a13.43,13.43,0,0,0-9.27,3.32h0a13.56,13.56,0,0,0-4.36,8.82h27.26a14,14,0,0,0-4.41-8.76h0A13.23,13.23,0,0,0,1034,798Zm31.66,36.36V774.86h7.67v59.49Z"/></g><g id="a0fa474b-bac0-455d-8de4-0bb6d631554d"><path class="cls-91" d="M731.24,763.84v82.65c0,4.9,7.65,4.9,7.65,0V763.84C738.89,758.94,731.24,758.94,731.24,763.84Zm28.16,0v82.65c0,4.9,7.66,4.9,7.66,0V763.84C767.06,758.94,759.4,758.94,759.4,763.84Z"/></g><text/></svg>