<?xml version="1.0" encoding="UTF-8" standalone="no"?>
<!DOCTYPE svg PUBLIC "-//W3C//DTD SVG 1.1//EN" "http://www.w3.org/Graphics/SVG/1.1/DTD/svg11.dtd">
<!-- Created with Vectornator (http://vectornator.io/) -->
<svg height="100%" stroke-miterlimit="10" style="fill-rule:nonzero;clip-rule:evenodd;stroke-linecap:round;stroke-linejoin:round;" version="1.1" viewBox="0 0 1000 666.667" width="100%" xml:space="preserve" xmlns="http://www.w3.org/2000/svg" xmlns:xlink="http://www.w3.org/1999/xlink">
<defs/>
<clipPath id="ArtboardFrame">
<rect height="666.667" width="1000" x="0" y="0"/>
</clipPath>
<g clip-path="url(#ArtboardFrame)" id="g10">
<path d="M986.791 671.835L-13.2094 671.835L-13.2094 5.168L986.791 5.168L986.791 671.835" fill="#ffffff" fill-rule="nonzero" opacity="1" stroke="none"/>
<path d="M801.105 545.111C773.98 529.38 751.877 518.629 739.236 478.425C726.593 438.221 697.4 414.987 665.239 400.601C633.076 386.216 627.647 361.845 622.451 327.691C617.252 293.537 593.14 267.939 567.521 263.031C541.903 258.123 525.807 207.336 476.213 207.336C426.617 207.336 410.523 258.123 384.904 263.031C359.285 267.939 335.173 293.537 329.975 327.691C324.777 361.845 319.349 386.216 287.188 400.601C255.025 414.987 225.831 438.221 213.189 478.425C200.548 518.629 178.445 529.38 151.32 545.111C124.193 560.841 126.455 571.027 126.455 571.027L476.213 571.027L825.971 571.027C825.971 571.027 828.232 560.841 801.105 545.111" fill="#dbefff" fill-rule="nonzero" opacity="1" stroke="none"/>
<path d="M105.86 521.192L106.084 516.367L120.995 517.061L120.771 521.887L105.86 521.192Z" fill="none" opacity="1" stroke="#777ac5" stroke-linecap="butt" stroke-linejoin="miter" stroke-width="0.666667"/>
<path d="M173.169 292.697L175.811 288.653L188.308 296.813L185.668 300.857L173.169 292.697Z" fill="none" opacity="1" stroke="#777ac5" stroke-linecap="butt" stroke-linejoin="miter" stroke-width="0.666667"/>
<path d="M826.017 489.535L828.972 485.713L840.779 494.847L837.823 498.667L826.017 489.535Z" fill="none" opacity="1" stroke="#777ac5" stroke-linecap="butt" stroke-linejoin="miter" stroke-width="0.666667"/>
<path d="M743.4 294.423L746.355 290.603L758.161 299.736L755.205 303.556L743.4 294.423Z" fill="none" opacity="1" stroke="#777ac5" stroke-linecap="butt" stroke-linejoin="miter" stroke-width="0.666667"/>
<path d="M641.995 114.904L637.907 112.331L645.855 99.6973L649.944 102.271L641.995 114.904Z" fill="none" opacity="1" stroke="#777ac5" stroke-linecap="butt" stroke-linejoin="miter" stroke-width="0.666667"/>
<path d="M550.224 109.687L547.409 113.612L535.279 104.916L538.092 100.989L550.224 109.687Z" fill="none" opacity="1" stroke="#777ac5" stroke-linecap="butt" stroke-linejoin="miter" stroke-width="0.666667"/>
<path d="M756.428 185.535L753.853 181.448L766.483 173.491L769.057 177.577L756.428 185.535Z" fill="none" opacity="1" stroke="#777ac5" stroke-linecap="butt" stroke-linejoin="miter" stroke-width="0.666667"/>
<path d="M815.668 405.259L811.848 402.304L820.98 390.497L824.8 393.452L815.668 405.259Z" fill="none" opacity="1" stroke="#777ac5" stroke-linecap="butt" stroke-linejoin="miter" stroke-width="0.666667"/>
<path d="M807.032 466.407C807.032 471.853 802.616 476.269 797.169 476.269C791.721 476.269 787.304 471.853 787.304 466.407C787.304 460.959 791.721 456.544 797.169 456.544C802.616 456.544 807.032 460.959 807.032 466.407Z" fill="none" opacity="1" stroke="#f7bbf7" stroke-linecap="butt" stroke-linejoin="miter" stroke-width="0.666667"/>
<path d="M131.5 444.695C131.5 450.143 127.084 454.557 121.636 454.557C116.189 454.557 111.773 450.143 111.773 444.695C111.773 439.248 116.189 434.831 121.636 434.831C127.084 434.831 131.5 439.248 131.5 444.695Z" fill="none" opacity="1" stroke="#f7bbf7" stroke-linecap="butt" stroke-linejoin="miter" stroke-width="0.666667"/>
<path d="M247.227 255.768C247.227 261.216 242.811 265.632 237.364 265.632C231.916 265.632 227.5 261.216 227.5 255.768C227.5 250.321 231.916 245.905 237.364 245.905C242.811 245.905 247.227 250.321 247.227 255.768Z" fill="none" opacity="1" stroke="#f7bbf7" stroke-linecap="butt" stroke-linejoin="miter" stroke-width="0.666667"/>
<path d="M606.137 140.555C606.137 146.001 601.721 150.417 596.275 150.417C590.827 150.417 586.411 146.001 586.411 140.555C586.411 135.107 590.827 130.692 596.275 130.692C601.721 130.692 606.137 135.107 606.137 140.555Z" fill="none" opacity="1" stroke="#f7bbf7" stroke-linecap="butt" stroke-linejoin="miter" stroke-width="0.666667"/>
<path d="M754.307 227.063C759.753 227.063 764.171 231.48 764.171 236.927C764.171 242.375 759.753 246.791 754.307 246.791C748.859 246.791 744.444 242.375 744.444 236.927C744.444 231.48 748.859 227.063 754.307 227.063Z" fill="none" opacity="1" stroke="#f7bbf7" stroke-linecap="butt" stroke-linejoin="miter" stroke-width="0.666667"/>
<path d="M770.508 382.792C770.508 388.24 766.091 392.656 760.643 392.656C755.196 392.656 750.78 388.24 750.78 382.792C750.78 377.345 755.196 372.929 760.643 372.929C766.091 372.929 770.508 377.345 770.508 382.792Z" fill="none" opacity="1" stroke="#f7bbf7" stroke-linecap="butt" stroke-linejoin="miter" stroke-width="0.666667"/>
<path d="M572.901 320.361L513.597 320.361L513.597 244.448L572.901 244.448L572.901 320.361" fill="#777ac5" fill-rule="nonzero" opacity="1" stroke="none"/>
<path d="M535.279 320.361L513.597 320.361L513.597 244.448L535.279 244.448L535.279 320.361" fill="#162235" fill-rule="nonzero" opacity="1" stroke="none"/>
<path d="M502.117 320.361L442.813 320.361L442.813 273.381L502.117 273.381L502.117 320.361" fill="#253871" fill-rule="nonzero" opacity="1" stroke="none"/>
<path d="M464.493 320.361L442.813 320.361L442.813 273.381L464.493 273.381L464.493 320.361" fill="#162235" fill-rule="nonzero" opacity="1" stroke="none"/>
<path d="M644.957 320.361L585.653 320.361L585.653 183.219L644.957 183.219L644.957 320.361" fill="#673ab7" fill-rule="nonzero" opacity="1" stroke="none"/>
<path d="M607.335 320.361L585.653 320.361L585.653 183.219L607.335 183.219L607.335 320.361" fill="#162235" fill-rule="nonzero" opacity="1" stroke="none"/>
<path d="M717.909 320.361L658.607 320.361L658.607 138.652L717.909 138.652L717.909 320.361" fill="#f47f36" fill-rule="nonzero" opacity="1" stroke="none"/>
<path d="M680.288 320.361L658.607 320.361L658.607 138.652L680.288 138.652L680.288 320.361" fill="#162235" fill-rule="nonzero" opacity="1" stroke="none"/>
<path d="M758.868 112.416L728.8 131.517L738.313 138.115C726.571 156.731 685.08 216.464 615.431 253.529C514.14 307.433 438.897 305.147 438.149 305.112L437.815 313.375C438.12 313.387 439.104 313.42 440.729 313.42C455.801 313.42 525.94 310.52 619.315 260.829C690.173 223.121 732.611 162.549 745.111 142.828L753.795 148.851L758.868 112.416" fill="#15213a" fill-rule="nonzero" opacity="1" stroke="none"/>
<path d="M756.801 110.309L726.735 129.411L736.245 136.008C724.503 154.624 683.015 214.357 613.363 251.423C512.073 305.325 436.831 303.04 436.081 303.005L435.747 311.269C436.052 311.28 437.037 311.313 438.661 311.313C453.735 311.313 523.872 308.413 617.248 258.723C688.105 221.015 730.544 160.443 743.043 140.723L751.727 146.744L756.801 110.309" fill="#f8be09" fill-rule="nonzero" opacity="1" stroke="none"/>
<path d="M756.801 110.309L726.735 129.411L736.245 136.008C724.503 154.624 683.015 214.357 613.363 251.423C512.073 305.325 436.831 303.04 436.081 303.005L435.747 311.269C436.052 311.28 437.037 311.313 438.661 311.313C453.735 311.313 523.872 308.413 617.248 258.723C688.105 221.015 730.544 160.443 743.043 140.723L751.727 146.744L756.801 110.309Z" fill="none" opacity="1" stroke="#100f0d" stroke-linecap="butt" stroke-linejoin="miter" stroke-width="0.516837"/>
<path d="M701.689 542.468C701.689 542.468 717.109 533.231 728.417 520.617C739.727 508.005 762.085 487.223 774.165 482.165C778.277 493.467 784.188 506.741 771.081 520.617C757.973 534.493 751.292 531.127 744.353 543.995C737.413 556.864 729.896 564.935 718.845 570.605L677.788 570.605L701.689 542.468" fill="#673ab7" fill-rule="nonzero" opacity="1" stroke="none"/>
<path d="M762.471 495.537C760.159 500.699 759.039 509.561 754.761 513.295C743.389 523.22 723.435 526.409 717.153 531.32L717.153 531.32C720.909 528.207 724.867 524.579 728.417 520.617C739.727 508.005 762.085 487.223 774.165 482.165C769.92 484.329 764.785 490.377 762.471 495.537" fill="#253871" fill-rule="nonzero" opacity="1" stroke="none"/>
<path d="M770.568 489.187C765.748 494.319 761.508 510.928 753.027 520.617C744.545 530.308 741.848 532.107 731.824 538.488C721.8 544.868 704.259 559.536 699.632 570.605" fill="none" opacity="1" stroke="#15213a" stroke-linecap="butt" stroke-linejoin="miter" stroke-width="0.666667"/>
<path d="M695.779 432.319C695.779 432.319 690.96 442.624 689.224 457.715C687.617 471.701 689.996 474.532 686.911 490.396C683.827 506.261 681 510.796 677.788 529.304C674.576 547.812 672.261 570.605 672.261 570.605L641.915 570.605C641.915 570.605 644.248 564.497 644.569 549.448C644.891 534.397 642.493 514.924 647.74 496.196C652.985 477.469 666.479 442.461 695.779 432.319" fill="#673ab7" fill-rule="nonzero" opacity="1" stroke="none"/>
<path d="M686.14 442.133C686.14 442.133 669.949 457.703 666.479 480.836C663.009 503.971 666.093 547.268 663.009 558.936" fill="none" opacity="1" stroke="#15213a" stroke-linecap="butt" stroke-linejoin="miter" stroke-width="0.666667"/>
<path d="M761.315 437.579C761.315 437.579 746.923 442.352 737.413 443.441C727.905 444.533 716.339 445.624 710.427 451.295C704.517 456.965 704.517 470.708 696.549 475.069C688.581 479.432 674.703 493.244 670.076 504.332C665.451 515.421 662.624 536.797 662.367 545.304C662.111 553.811 657.227 566.678 654.913 570.605L684.727 570.605C684.727 570.605 706.315 552.284 711.969 537.887C717.624 523.491 716.081 508.005 721.993 499.499C727.905 490.992 738.395 479.587 746.665 469.385C757.973 455.439 761.315 437.579 761.315 437.579" fill="#253871" fill-rule="nonzero" opacity="1" stroke="none"/>
<path d="M721.993 499.499C720.589 501.519 719.613 503.941 718.853 506.643L718.845 506.647C720.964 487.065 724.82 475.699 732.017 469.385C739.212 463.073 759.003 446.767 761.315 437.579C761.315 437.579 757.973 455.439 746.665 469.385C738.395 479.587 727.905 490.992 721.993 499.499" fill="#673ab7" fill-rule="nonzero" opacity="1" stroke="none"/>
<path d="M751.549 444.533C741.783 452.167 729.961 457.14 721.736 465.885C713.512 474.633 702.54 492.564 695.779 504.98C683.496 527.529 674.447 560.136 666.479 570.605" fill="none" opacity="1" stroke="#15213a" stroke-linecap="butt" stroke-linejoin="miter" stroke-width="0.666667"/>
<path d="M299.035 509.563L170.135 509.563C165.781 509.563 162.252 506.035 162.252 501.681L162.252 414.727C162.252 410.375 165.781 406.845 170.135 406.845L299.035 406.845C303.388 406.845 306.916 410.375 306.916 414.727L306.916 501.681C306.916 506.035 303.388 509.563 299.035 509.563" fill="#e6f3fc" fill-rule="nonzero" opacity="1" stroke="none"/>
<path d="M170.135 509.563L299.035 509.563C303.388 509.563 306.916 506.035 306.916 501.681L306.916 468.103L286.855 461.621C286.009 461.348 285.229 460.903 284.565 460.315L275.812 452.564C273.988 450.949 271.141 451.425 269.94 453.544L267.909 457.125C265.981 460.528 261.041 460.413 259.273 456.925L241.929 437.783C239.503 435.105 235.131 435.784 233.629 439.071L215.192 479.444C213.839 482.408 209.609 482.351 208.336 479.353L203.745 468.545C203.283 467.455 201.877 467.157 201.011 467.964L201.011 467.964C199.757 469.133 197.717 468.636 197.143 467.021L192.841 454.937C191.468 451.083 186.273 450.468 184.04 453.897L181.636 457.587C179.564 460.769 172.301 458.848 172.301 458.848L162.252 449.943L162.252 501.681C162.252 506.035 165.781 509.563 170.135 509.563" fill="#a59bff" fill-opacity="0.703333" fill-rule="nonzero" opacity="1" stroke="none"/>
<path d="M174.728 416.452L174.728 499.956" fill="none" opacity="1" stroke="#f7f8f8" stroke-linecap="butt" stroke-linejoin="miter" stroke-width="0.666667"/>
<path d="M179.161 416.452L179.161 499.956" fill="none" opacity="1" stroke="#f7f8f8" stroke-linecap="butt" stroke-linejoin="miter" stroke-width="0.666667"/>
<path d="M183.596 416.452L183.596 499.956" fill="none" opacity="1" stroke="#f7f8f8" stroke-linecap="butt" stroke-linejoin="miter" stroke-width="0.666667"/>
<path d="M188.029 416.452L188.029 499.956" fill="none" opacity="1" stroke="#f7f8f8" stroke-linecap="butt" stroke-linejoin="miter" stroke-width="0.666667"/>
<path d="M192.464 416.452L192.464 499.956" fill="none" opacity="1" stroke="#f7f8f8" stroke-linecap="butt" stroke-linejoin="miter" stroke-width="0.666667"/>
<path d="M196.897 416.452L196.897 499.956" fill="none" opacity="1" stroke="#f7f8f8" stroke-linecap="butt" stroke-linejoin="miter" stroke-width="0.666667"/>
<path d="M201.331 416.452L201.331 499.956" fill="none" opacity="1" stroke="#f7f8f8" stroke-linecap="butt" stroke-linejoin="miter" stroke-width="0.666667"/>
<path d="M205.765 416.452L205.765 499.956" fill="none" opacity="1" stroke="#f7f8f8" stroke-linecap="butt" stroke-linejoin="miter" stroke-width="0.666667"/>
<path d="M210.199 416.452L210.199 499.956" fill="none" opacity="1" stroke="#f7f8f8" stroke-linecap="butt" stroke-linejoin="miter" stroke-width="0.666667"/>
<path d="M214.632 416.452L214.632 499.956" fill="none" opacity="1" stroke="#f7f8f8" stroke-linecap="butt" stroke-linejoin="miter" stroke-width="0.666667"/>
<path d="M219.067 416.452L219.067 499.956" fill="none" opacity="1" stroke="#f7f8f8" stroke-linecap="butt" stroke-linejoin="miter" stroke-width="0.666667"/>
<path d="M223.5 416.452L223.5 499.956" fill="none" opacity="1" stroke="#f7f8f8" stroke-linecap="butt" stroke-linejoin="miter" stroke-width="0.666667"/>
<path d="M227.935 416.452L227.935 499.956" fill="none" opacity="1" stroke="#f7f8f8" stroke-linecap="butt" stroke-linejoin="miter" stroke-width="0.666667"/>
<path d="M232.368 416.452L232.368 499.956" fill="none" opacity="1" stroke="#f7f8f8" stroke-linecap="butt" stroke-linejoin="miter" stroke-width="0.666667"/>
<path d="M236.801 416.452C236.801 416.452 236.801 462.868 236.801 483.744C236.801 504.62 236.801 499.956 236.801 499.956" fill="none" opacity="1" stroke="#f7f8f8" stroke-linecap="butt" stroke-linejoin="miter" stroke-width="0.666667"/>
<path d="M241.235 416.452L241.235 499.956" fill="none" opacity="1" stroke="#f7f8f8" stroke-linecap="butt" stroke-linejoin="miter" stroke-width="0.666667"/>
<path d="M245.669 416.452L245.669 499.956" fill="none" opacity="1" stroke="#f7f8f8" stroke-linecap="butt" stroke-linejoin="miter" stroke-width="0.666667"/>
<path d="M250.103 416.452L250.103 499.956" fill="none" opacity="1" stroke="#f7f8f8" stroke-linecap="butt" stroke-linejoin="miter" stroke-width="0.666667"/>
<path d="M254.536 416.452L254.536 499.956" fill="none" opacity="1" stroke="#f7f8f8" stroke-linecap="butt" stroke-linejoin="miter" stroke-width="0.666667"/>
<path d="M258.971 416.452L258.971 499.956" fill="none" opacity="1" stroke="#f7f8f8" stroke-linecap="butt" stroke-linejoin="miter" stroke-width="0.666667"/>
<path d="M263.404 416.452L263.404 499.956" fill="none" opacity="1" stroke="#f7f8f8" stroke-linecap="butt" stroke-linejoin="miter" stroke-width="0.666667"/>
<path d="M267.837 416.452L267.837 499.956" fill="none" opacity="1" stroke="#f7f8f8" stroke-linecap="butt" stroke-linejoin="miter" stroke-width="0.666667"/>
<path d="M272.272 416.452L272.272 499.956" fill="none" opacity="1" stroke="#f7f8f8" stroke-linecap="butt" stroke-linejoin="miter" stroke-width="0.666667"/>
<path d="M276.705 416.452L276.705 499.956" fill="none" opacity="1" stroke="#f7f8f8" stroke-linecap="butt" stroke-linejoin="miter" stroke-width="0.666667"/>
<path d="M281.139 416.452L281.139 499.956" fill="none" opacity="1" stroke="#f7f8f8" stroke-linecap="butt" stroke-linejoin="miter" stroke-width="0.666667"/>
<path d="M285.573 416.452L285.573 499.956" fill="none" opacity="1" stroke="#f7f8f8" stroke-linecap="butt" stroke-linejoin="miter" stroke-width="0.666667"/>
<path d="M290.007 416.452L290.007 499.956" fill="none" opacity="1" stroke="#f7f8f8" stroke-linecap="butt" stroke-linejoin="miter" stroke-width="0.666667"/>
<path d="M294.44 416.452L294.44 499.956" fill="none" opacity="1" stroke="#f7f8f8" stroke-linecap="butt" stroke-linejoin="miter" stroke-width="0.666667"/>
<path d="M174.728 468.103L174.728 468.103C173.921 468.103 173.267 467.449 173.267 466.643L173.267 448.789C173.267 447.983 173.921 447.327 174.728 447.327L174.728 447.327C175.536 447.327 176.189 447.983 176.189 448.789L176.189 466.643C176.189 467.449 175.536 468.103 174.728 468.103" fill="#80ec53" fill-rule="nonzero" opacity="1" stroke="none"/>
<path d="M179.275 469.904L179.049 469.904C178.304 469.904 177.7 469.3 177.7 468.555L177.7 453.56C177.7 452.816 178.304 452.212 179.049 452.212L179.275 452.212C180.02 452.212 180.624 452.816 180.624 453.56L180.624 468.555C180.624 469.3 180.02 469.904 179.275 469.904" fill="#b70010" fill-rule="nonzero" opacity="1" stroke="none"/>
<path d="M183.596 465.795L183.596 465.795C182.788 465.795 182.133 465.14 182.133 464.332L182.133 441.468C182.133 440.66 182.788 440.007 183.596 440.007L183.596 440.007C184.403 440.007 185.057 440.66 185.057 441.468L185.057 464.332C185.057 465.14 184.403 465.795 183.596 465.795" fill="#80ec53" fill-rule="nonzero" opacity="1" stroke="none"/>
<path d="M188.029 452.212L188.029 452.212C187.223 452.212 186.568 451.557 186.568 450.749L186.568 439.46C186.568 438.653 187.223 437.997 188.029 437.997L188.029 437.997C188.837 437.997 189.492 438.653 189.492 439.46L189.492 450.749C189.492 451.557 188.837 452.212 188.029 452.212" fill="#80ec53" fill-rule="nonzero" opacity="1" stroke="none"/>
<path d="M192.464 467.345L192.464 467.345C191.656 467.345 191.001 466.691 191.001 465.883L191.001 450.525C191.001 449.717 191.656 449.063 192.464 449.063L192.464 449.063C193.271 449.063 193.925 449.717 193.925 450.525L193.925 465.883C193.925 466.691 193.271 467.345 192.464 467.345" fill="#b70010" fill-rule="nonzero" opacity="1" stroke="none"/>
<path d="M196.897 478.389L196.897 478.389C196.089 478.389 195.436 477.736 195.436 476.929L195.436 464.537C195.436 463.729 196.089 463.076 196.897 463.076L196.897 463.076C197.704 463.076 198.359 463.729 198.359 464.537L198.359 476.929C198.359 477.736 197.704 478.389 196.897 478.389" fill="#80ec53" fill-rule="nonzero" opacity="1" stroke="none"/>
<path d="M201.331 487.952L201.331 487.952C200.524 487.952 199.869 487.297 199.869 486.491L199.869 463.845C199.869 463.039 200.524 462.383 201.331 462.383L201.331 462.383C202.139 462.383 202.793 463.039 202.793 463.845L202.793 486.491C202.793 487.297 202.139 487.952 201.331 487.952" fill="#80ec53" fill-rule="nonzero" opacity="1" stroke="none"/>
<path d="M205.765 487.177L205.765 487.177C204.957 487.177 204.303 486.524 204.303 485.716L204.303 467.863C204.303 467.056 204.957 466.401 205.765 466.401L205.765 466.401C206.572 466.401 207.227 467.056 207.227 467.863L207.227 485.716C207.227 486.524 206.572 487.177 205.765 487.177" fill="#b70010" fill-rule="nonzero" opacity="1" stroke="none"/>
<path d="M210.413 494.205L209.983 494.205C209.295 494.205 208.737 493.647 208.737 492.959L208.737 480.345C208.737 479.657 209.295 479.1 209.983 479.1L210.413 479.1C211.103 479.1 211.66 479.657 211.66 480.345L211.66 492.959C211.66 493.647 211.103 494.205 210.413 494.205" fill="#80ec53" fill-rule="nonzero" opacity="1" stroke="none"/>
<path d="M214.632 491.509L214.632 491.509C213.825 491.509 213.171 490.855 213.171 490.047L213.171 472.195C213.171 471.387 213.825 470.733 214.632 470.733L214.632 470.733C215.439 470.733 216.095 471.387 216.095 472.195L216.095 490.047C216.095 490.855 215.439 491.509 214.632 491.509" fill="#80ec53" fill-rule="nonzero" opacity="1" stroke="none"/>
<path d="M219.067 478.492L219.067 478.492C218.259 478.492 217.604 477.837 217.604 477.031L217.604 463.845C217.604 463.039 218.259 462.383 219.067 462.383L219.067 462.383C219.873 462.383 220.528 463.039 220.528 463.845L220.528 477.031C220.528 477.837 219.873 478.492 219.067 478.492" fill="#80ec53" fill-rule="nonzero" opacity="1" stroke="none"/>
<path d="M223.5 474.569L223.5 474.569C222.692 474.569 222.039 473.916 222.039 473.108L222.039 455.255C222.039 454.448 222.692 453.793 223.5 453.793L223.5 453.793C224.307 453.793 224.961 454.448 224.961 455.255L224.961 473.108C224.961 473.916 224.307 474.569 223.5 474.569" fill="#80ec53" fill-rule="nonzero" opacity="1" stroke="none"/>
<path d="M227.935 460.783L227.935 460.783C227.127 460.783 226.472 460.128 226.472 459.321L226.472 435.193C226.472 434.385 227.127 433.731 227.935 433.731L227.935 433.731C228.741 433.731 229.396 434.385 229.396 435.193L229.396 459.321C229.396 460.128 228.741 460.783 227.935 460.783" fill="#80ec53" fill-rule="nonzero" opacity="1" stroke="none"/>
<path d="M232.368 452.9L232.368 452.9C231.56 452.9 230.907 452.247 230.907 451.439L230.907 433.587C230.907 432.779 231.56 432.124 232.368 432.124L232.368 432.124C233.175 432.124 233.829 432.779 233.829 433.587L233.829 451.439C233.829 452.247 233.175 452.9 232.368 452.9" fill="#80ec53" fill-rule="nonzero" opacity="1" stroke="none"/>
<path d="M236.801 440.007L236.801 440.007C235.993 440.007 235.34 439.352 235.34 438.545L235.34 429.748C235.34 428.94 235.993 428.287 236.801 428.287L236.801 428.287C237.608 428.287 238.263 428.94 238.263 429.748L238.263 438.545C238.263 439.352 237.608 440.007 236.801 440.007" fill="#80ec53" fill-rule="nonzero" opacity="1" stroke="none"/>
<path d="M241.235 450.823L241.235 450.823C240.428 450.823 239.773 450.168 239.773 449.361L239.773 431.508C239.773 430.701 240.428 430.047 241.235 430.047L241.235 430.047C242.043 430.047 242.696 430.701 242.696 431.508L242.696 449.361C242.696 450.168 242.043 450.823 241.235 450.823" fill="#b70010" fill-rule="nonzero" opacity="1" stroke="none"/>
<path d="M245.669 449.431L245.669 449.431C244.861 449.431 244.208 448.775 244.208 447.968L244.208 434.009C244.208 433.203 244.861 432.548 245.669 432.548L245.669 432.548C246.476 432.548 247.131 433.203 247.131 434.009L247.131 447.968C247.131 448.775 246.476 449.431 245.669 449.431" fill="#b70010" fill-rule="nonzero" opacity="1" stroke="none"/>
<path d="M250.103 458.773L250.103 458.773C249.296 458.773 248.641 458.12 248.641 457.313L248.641 439.46C248.641 439.46 249.296 437.997 250.103 437.997L250.103 437.997C250.909 437.997 251.564 438.653 251.564 439.46L251.564 457.313C251.564 458.12 250.909 458.773 250.103 458.773" fill="#b70010" fill-rule="nonzero" opacity="1" stroke="none"/>
<path d="M254.536 458.773L254.536 458.773C253.729 458.773 253.075 458.12 253.075 457.313L253.075 446.157C253.075 445.349 253.729 444.695 254.536 444.695L254.536 444.695C255.344 444.695 255.997 445.349 255.997 446.157L255.997 457.313C255.997 458.12 255.344 458.773 254.536 458.773" fill="#b70010" fill-rule="nonzero" opacity="1" stroke="none"/>
<path d="M258.971 468.103L258.971 468.103C258.163 468.103 257.508 467.449 257.508 466.643L257.508 448.789C257.508 447.983 258.163 447.327 258.971 447.327L258.971 447.327C259.777 447.327 260.432 447.983 260.432 448.789L260.432 466.643C260.432 467.449 259.777 468.103 258.971 468.103" fill="#b70010" fill-rule="nonzero" opacity="1" stroke="none"/>
<path d="M263.404 475.464L263.404 475.464C262.597 475.464 261.943 474.811 261.943 474.003L261.943 452.284C261.943 451.477 262.597 450.823 263.404 450.823L263.404 450.823C264.212 450.823 264.865 451.477 264.865 452.284L264.865 474.003C264.865 474.811 264.212 475.464 263.404 475.464" fill="#80ec53" fill-rule="nonzero" opacity="1" stroke="none"/>
<path d="M267.837 468.103L267.837 468.103C267.031 468.103 266.376 467.449 266.376 466.643L266.376 448.789C266.376 447.983 267.031 447.327 267.837 447.327L267.837 447.327C268.645 447.327 269.3 447.983 269.3 448.789L269.3 466.643C269.3 467.449 268.645 468.103 267.837 468.103" fill="#80ec53" fill-rule="nonzero" opacity="1" stroke="none"/>
<path d="M272.272 463.632L272.272 463.632C271.465 463.632 270.809 462.977 270.809 462.169L270.809 444.317C270.809 443.509 271.465 442.856 272.272 442.856L272.272 442.856C273.079 442.856 273.733 443.509 273.733 444.317L273.733 462.169C273.733 462.977 273.079 463.632 272.272 463.632" fill="#80ec53" fill-rule="nonzero" opacity="1" stroke="none"/>
<path d="M276.705 466.303L276.705 466.303C275.899 466.303 275.244 465.648 275.244 464.84L275.244 446.988C275.244 446.18 275.899 445.527 276.705 445.527L276.705 445.527C277.513 445.527 278.167 446.18 278.167 446.988L278.167 464.84C278.167 465.648 277.513 466.303 276.705 466.303" fill="#b70010" fill-rule="nonzero" opacity="1" stroke="none"/>
<path d="M281.139 471.596L281.139 471.596C280.332 471.596 279.677 470.94 279.677 470.133L279.677 452.28C279.677 451.473 280.332 450.82 281.139 450.82L281.139 450.82C281.947 450.82 282.601 451.473 282.601 452.28L282.601 470.133C282.601 470.94 281.947 471.596 281.139 471.596" fill="#80ec53" fill-rule="nonzero" opacity="1" stroke="none"/>
<path d="M285.573 467.481L285.573 467.481C284.767 467.481 284.111 466.825 284.111 466.019L284.111 448.165C284.111 447.359 284.767 446.704 285.573 446.704L285.573 446.704C286.381 446.704 287.035 447.359 287.035 448.165L287.035 466.019C287.035 466.825 286.381 467.481 285.573 467.481" fill="#b70010" fill-rule="nonzero" opacity="1" stroke="none"/>
<path d="M290.007 468.103L290.007 468.103C289.2 468.103 288.545 467.449 288.545 466.643L288.545 448.789C288.545 447.983 289.2 447.327 290.007 447.327L290.007 447.327C290.815 447.327 291.468 447.983 291.468 448.789L291.468 466.643C291.468 467.449 290.815 468.103 290.007 468.103" fill="#80ec53" fill-rule="nonzero" opacity="1" stroke="none"/>
<path d="M294.44 468.103L294.44 468.103C293.633 468.103 292.979 467.449 292.979 466.643L292.979 448.789C292.979 447.983 293.633 447.327 294.44 447.327L294.44 447.327C295.248 447.327 295.903 447.983 295.903 448.789L295.903 466.643C295.903 467.449 295.248 468.103 294.44 468.103" fill="#80ec53" fill-rule="nonzero" opacity="1" stroke="none"/>
<path d="M741.548 387.819C741.548 392.636 739.583 396.999 736.409 400.155C733.255 403.328 728.872 405.293 724.073 405.293L623.324 405.293C613.708 405.293 605.849 397.435 605.849 387.819C605.849 383 607.813 378.637 610.988 375.483C614.143 372.308 618.507 370.344 623.324 370.344L634.508 370.344C634.508 363.675 637.228 357.611 641.631 353.228C646.013 348.825 652.076 346.105 658.745 346.105L681.095 346.105C694.432 346.105 705.352 357.005 705.352 370.344L724.073 370.344C733.688 370.344 741.548 378.203 741.548 387.819" fill="#673ab7" fill-rule="nonzero" opacity="1" stroke="none"/>
<path d="M650.101 365.155L602.033 365.155C600.073 365.155 598.468 363.549 598.468 361.589L598.468 360.877C598.468 358.916 600.073 357.312 602.033 357.312L650.101 357.312C652.063 357.312 653.667 358.916 653.667 360.877L653.667 361.589C653.667 363.549 652.063 365.155 650.101 365.155" fill="#253871" fill-rule="nonzero" opacity="1" stroke="none"/>
<path d="M629.696 378.916L599.979 378.916C598.531 378.916 597.345 377.731 597.345 376.281L597.345 375.755C597.345 374.307 598.531 373.12 599.979 373.12L629.696 373.12C631.144 373.12 632.331 374.307 632.331 375.755L632.331 376.281C632.331 377.731 631.144 378.916 629.696 378.916" fill="#f8be09" fill-rule="nonzero" opacity="1" stroke="none"/>
<path d="M666.352 417.713L621.993 417.713C620.296 417.713 618.907 416.324 618.907 414.625L618.907 414.008C618.907 412.309 620.296 410.92 621.993 410.92L666.352 410.92C668.049 410.92 669.439 412.309 669.439 414.008L669.439 414.625C669.439 416.324 668.049 417.713 666.352 417.713" fill="#f7bbf7" fill-rule="nonzero" opacity="1" stroke="none"/>
<path d="M415.169 511.607C415.227 517.057 413.029 522.011 409.448 525.591C405.915 529.115 401.033 531.312 395.677 531.312L277.427 531.312C273.432 531.312 270.193 528.073 270.193 524.08L270.193 521.571L270.193 521.56C270.193 507.455 280.329 495.597 293.676 492.904C293.656 492.712 293.656 492.519 293.656 492.325C293.656 486.969 295.843 482.089 299.377 478.555C302.911 475.021 307.792 472.833 313.149 472.833L349.937 472.833C360.66 472.833 369.431 481.603 369.431 492.325L395.16 492.325C405.929 492.325 415.053 500.839 415.169 511.607" fill="#673ab7" fill-rule="nonzero" opacity="1" stroke="none"/>
<path d="M413.568 541.966L366.016 541.966C364.195 541.966 362.705 540.477 362.705 538.656L362.705 537.993C362.705 536.172 364.195 534.683 366.016 534.683L413.568 534.683C415.389 534.683 416.879 536.172 416.879 537.993L416.879 538.656C416.879 540.477 415.389 541.966 413.568 541.966" fill="#253871" fill-rule="nonzero" opacity="1" stroke="none"/>
<path d="M424.753 513.547L389.945 513.547C388.204 513.547 386.78 512.121 386.78 510.381L386.78 509.748C386.78 508.008 388.204 506.584 389.945 506.584L424.753 506.584C426.493 506.584 427.917 508.008 427.917 509.748L427.917 510.381C427.917 512.121 426.493 513.547 424.753 513.547" fill="#f7bbf7" fill-rule="nonzero" opacity="1" stroke="none"/>
<path d="M423.316 522.076L408.799 522.076C407.344 522.076 406.153 520.884 406.153 519.429L406.153 518.9C406.153 517.444 407.344 516.253 408.799 516.253L423.316 516.253C424.771 516.253 425.963 517.444 425.963 518.9L425.963 519.429C425.963 520.884 424.771 522.076 423.316 522.076" fill="#f8be09" fill-rule="nonzero" opacity="1" stroke="none"/>
<path d="M330.188 404.387C330.188 404.387 337.085 406.079 338.908 411.545C340.729 417.011 336.863 433.343 339.949 437.704C345.936 446.161 358.103 450.864 358.103 450.864L378.471 435.1C378.471 435.1 368.711 433.408 365.847 426.771C362.984 420.133 367.019 413.105 364.805 406.339C362.124 398.136 355.371 393.976 355.371 393.976L330.188 404.387" fill="#f7e0bb" fill-rule="nonzero" opacity="1" stroke="none"/>
<path d="M429.95 301.368L429.95 506.278C429.95 518.465 448.939 518.465 448.939 506.278L448.939 301.368C448.939 289.181 429.95 289.181 429.95 301.368ZM499.813 301.368L499.813 506.278C499.813 518.465 518.801 518.465 518.801 506.278L518.801 301.368C518.801 289.181 499.813 289.181 499.813 301.368Z" fill="#ffffff" fill-rule="nonzero" opacity="0.231699" stroke="none"/>
<path d="M367.401 440.271L366.251 441.063L358.093 446.7C357.573 446.48 356.979 446.501 356.481 446.759C355.492 446.171 353.843 445.181 352.019 444.024C351.776 443.879 351.541 443.723 351.292 443.569C347.899 441.392 344.103 438.763 342.784 437.105C340.475 434.196 340.988 430.663 341.691 425.783L341.889 424.42C342.095 422.953 342.227 421.451 342.277 419.979C342.292 419.729 342.307 419.488 342.3 419.245C342.403 415.112 341.933 411.285 340.98 409.175C340.621 408.384 340.079 407.615 339.347 406.867C339.272 406.787 339.192 406.707 339.112 406.632C338.972 406.487 338.819 406.347 338.664 406.213C338.561 406.119 338.452 406.024 338.343 405.936C338.701 405.636 338.943 405.211 339.009 404.727C339.075 404.251 338.964 403.788 338.701 403.408L354.341 397.229C354.796 397.545 355.36 397.648 355.895 397.508C357.881 399.304 362.197 403.503 363.304 406.816C363.971 408.809 363.619 412.004 363.245 415.389C363.135 416.409 363.019 417.464 362.931 418.527C362.916 418.644 362.901 418.769 362.901 418.893C362.887 419.011 362.872 419.136 362.872 419.26C362.667 421.941 362.659 424.64 363.297 426.904C363.576 427.916 364.037 428.839 364.601 429.689C364.763 429.931 364.931 430.165 365.115 430.392C366.829 432.613 369.248 434.217 371.007 435.185C370.728 435.537 370.581 435.977 370.611 436.445C370.633 436.923 370.824 437.363 371.145 437.684L367.401 440.271ZM371.981 437.363C371.623 437.171 371.395 436.813 371.373 436.409C371.352 436.007 371.535 435.632 371.864 435.413C371.973 435.339 372.04 435.208 372.033 435.076C372.025 434.943 371.944 434.82 371.827 434.761C370.223 433.917 367.812 432.431 366.045 430.333C365.855 430.107 365.671 429.872 365.495 429.631C364.857 428.751 364.337 427.769 364.037 426.699C363.421 424.523 363.436 421.883 363.641 419.245C363.648 419.128 363.656 419.003 363.671 418.885C363.679 418.763 363.685 418.637 363.7 418.512C363.788 417.48 363.897 416.46 364.008 415.471C364.388 412.004 364.748 408.728 364.029 406.573C362.835 402.997 358.188 398.541 356.24 396.789C356.136 396.695 355.983 396.664 355.844 396.716C355.44 396.879 354.987 396.797 354.656 396.504C354.553 396.409 354.4 396.38 354.26 396.437L337.903 402.901C337.777 402.953 337.683 403.063 337.668 403.203C337.645 403.341 337.704 403.473 337.815 403.561C338.144 403.811 338.305 404.213 338.247 404.624C338.196 405.043 337.924 405.38 337.536 405.533C337.404 405.584 337.316 405.703 337.295 405.833C337.279 405.973 337.331 406.104 337.44 406.193C337.499 406.244 337.565 406.288 337.624 406.347C337.792 406.471 337.947 406.603 338.1 406.743C338.196 406.816 338.291 406.904 338.379 406.985C339.259 407.797 339.896 408.641 340.284 409.491C341.208 411.528 341.648 415.252 341.537 419.296C341.537 419.539 341.531 419.788 341.516 420.029C341.457 421.451 341.332 422.895 341.135 424.309L340.936 425.672C340.225 430.553 339.668 434.408 342.189 437.583C343.612 439.379 347.737 442.207 351.285 444.464C351.527 444.625 351.776 444.771 352.011 444.925C353.813 446.053 355.389 446.999 356.291 447.528C356.349 447.564 356.415 447.579 356.481 447.579C356.561 447.579 356.635 447.556 356.701 447.512C357.068 447.264 357.544 447.241 357.932 447.469C358.056 447.543 358.217 447.543 358.343 447.453L367.709 440.991L368.852 440.199L372.019 438.015C372.128 437.94 372.187 437.817 372.18 437.677C372.172 437.547 372.099 437.428 371.981 437.363" fill="#777ac5" fill-rule="nonzero" opacity="1" stroke="none"/>
<path d="M335.025 405.38L333.459 404.159L335.26 402.988L336.436 404.159L335.025 405.38" fill="#777ac5" fill-rule="nonzero" opacity="1" stroke="none"/>
<path d="M354.2 395.531L355.268 394.641L356.216 395.531L355.089 396.301L354.2 395.531" fill="#777ac5" fill-rule="nonzero" opacity="1" stroke="none"/>
<path d="M356.412 448.765L357.192 447.788L358.429 448.504L357.713 449.611L356.412 448.765" fill="#777ac5" fill-rule="nonzero" opacity="1" stroke="none"/>
<path d="M372.159 436.289L373.72 435.149L375.039 436.164L373.591 437.264L372.159 436.289" fill="#777ac5" fill-rule="nonzero" opacity="1" stroke="none"/>
<path d="M349.789 423.656C350.183 425.636 350.863 427.713 352.469 428.936C353.439 429.672 354.713 430.024 355.909 429.797C357.104 429.572 358.189 428.744 358.645 427.616C359.115 426.453 358.905 425.143 358.689 423.908C358.407 422.296 358.113 420.655 357.343 419.212C356.571 417.769 355.224 416.535 353.601 416.328C349.044 415.749 349.192 420.659 349.789 423.656" fill="#777ac5" fill-rule="nonzero" opacity="1" stroke="none"/>
<path d="M732.296 343.469C732.296 343.469 735.989 340.313 739.753 341.483C743.519 342.653 751.049 351.323 754.704 351.348C761.795 351.399 769.265 346.515 769.265 346.515L768.637 328.905C768.637 328.905 763.8 333.652 758.969 332.593C754.139 331.535 751.845 326.487 747.201 325.015C741.573 323.229 736.565 325.32 736.565 325.32L732.296 343.469" fill="#f7e0bb" fill-rule="nonzero" opacity="1" stroke="none"/>
<path d="M767.092 337.12L767.073 338.075L766.947 344.859C766.617 345.059 766.392 345.397 766.336 345.777C765.615 346.093 764.408 346.613 763.035 347.165C762.856 347.241 762.679 347.311 762.492 347.387C759.928 348.404 756.951 349.463 755.504 349.535C752.965 349.656 751.208 347.96 748.776 345.62L748.097 344.967C747.365 344.268 746.583 343.595 745.785 342.977C745.652 342.869 745.524 342.765 745.387 342.672C743.131 340.965 740.819 339.699 739.265 339.384C738.683 339.268 738.037 339.263 737.329 339.371C737.256 339.38 737.179 339.392 737.105 339.408C736.968 339.427 736.831 339.457 736.695 339.489C736.601 339.508 736.505 339.532 736.411 339.557C736.388 339.239 736.248 338.935 736.007 338.704C735.768 338.477 735.467 338.353 735.151 338.348L737.963 327.192C738.319 327.065 738.6 326.793 738.737 326.44C740.527 326.053 744.584 325.331 746.867 326.039C748.241 326.464 749.876 327.936 751.608 329.495C752.131 329.963 752.669 330.449 753.225 330.923C753.284 330.977 753.348 331.036 753.416 331.085C753.476 331.14 753.539 331.197 753.609 331.248C755.017 332.433 756.513 333.513 758.025 334.064C758.699 334.312 759.396 334.424 760.093 334.451C760.293 334.457 760.491 334.457 760.689 334.447C762.608 334.38 764.465 333.677 765.705 333.085C765.789 333.381 765.975 333.639 766.247 333.809C766.52 333.988 766.841 334.057 767.149 334.007L767.092 337.12ZM767.304 333.413C767.055 333.537 766.764 333.52 766.531 333.371C766.299 333.223 766.164 332.971 766.175 332.7C766.177 332.609 766.131 332.52 766.055 332.472C765.977 332.423 765.876 332.419 765.797 332.46C764.687 333.016 762.899 333.761 761.028 333.905C760.827 333.921 760.623 333.929 760.417 333.931C759.675 333.933 758.921 333.831 758.207 333.571C756.752 333.044 755.292 331.981 753.908 330.815C753.845 330.764 753.78 330.709 753.72 330.655C753.653 330.601 753.587 330.547 753.523 330.489C752.984 330.028 752.463 329.56 751.957 329.104C750.184 327.508 748.507 326 747.021 325.54C744.559 324.775 740.227 325.577 738.475 325.961C738.381 325.98 738.303 326.055 738.277 326.152C738.205 326.44 737.979 326.66 737.685 326.727C737.591 326.745 737.513 326.82 737.489 326.92L734.551 338.591C734.528 338.68 734.552 338.777 734.624 338.841C734.692 338.908 734.789 338.929 734.881 338.903C735.152 338.819 735.44 338.891 735.644 339.087C735.856 339.281 735.936 339.567 735.865 339.844C735.843 339.937 735.872 340.035 735.936 340.1C736.008 340.161 736.101 340.187 736.193 340.16C736.245 340.149 736.297 340.129 736.353 340.12C736.489 340.076 736.625 340.044 736.763 340.013C736.843 339.991 736.928 339.972 737.009 339.955C737.812 339.792 738.535 339.773 739.163 339.897C740.663 340.199 742.908 341.44 745.111 343.116C745.245 343.213 745.381 343.317 745.509 343.421C746.276 344.021 747.028 344.667 747.736 345.341L748.413 345.996C750.843 348.339 752.761 350.188 755.531 350.053C757.096 349.981 760.316 348.819 762.987 347.749C763.173 347.679 763.353 347.599 763.532 347.529C764.88 346.979 766.033 346.481 766.687 346.191C766.731 346.172 766.765 346.141 766.792 346.104C766.824 346.06 766.841 346.011 766.843 345.956C766.851 345.653 767.028 345.38 767.309 345.255C767.401 345.215 767.464 345.125 767.465 345.021L767.613 337.236L767.631 336.285L767.681 333.653C767.685 333.563 767.637 333.481 767.559 333.429C767.481 333.38 767.388 333.375 767.304 333.413" fill="#777ac5" fill-rule="nonzero" opacity="1" stroke="none"/>
<path d="M734.779 341.177L733.473 341.561L733.543 340.093L734.663 339.908L734.779 341.177" fill="#777ac5" fill-rule="nonzero" opacity="1" stroke="none"/>
<path d="M736.961 326.592L736.893 325.644L737.767 325.471L737.744 326.405L736.961 326.592" fill="#777ac5" fill-rule="nonzero" opacity="1" stroke="none"/>
<path d="M767.423 346.617L767.192 345.793L768.084 345.392L768.412 346.232L767.423 346.617" fill="#777ac5" fill-rule="nonzero" opacity="1" stroke="none"/>
<path d="M766.779 332.887L766.768 331.564L767.859 331.237L767.892 332.48L766.779 332.887" fill="#777ac5" fill-rule="nonzero" opacity="1" stroke="none"/>
<path d="M750.828 340.271C752.085 340.844 753.511 341.296 754.832 340.891C755.628 340.647 756.332 340.079 756.684 339.324C757.035 338.569 757.009 337.636 756.565 336.932C756.107 336.208 755.295 335.8 754.52 335.428C753.513 334.94 752.483 334.448 751.373 334.3C750.264 334.153 749.04 334.408 748.279 335.228C746.136 337.529 748.924 339.407 750.828 340.271" fill="#777ac5" fill-rule="nonzero" opacity="1" stroke="none"/>
<path d="M165.069 565.121C165.069 565.121 164.217 559.343 167.816 556.259C171.415 553.175 185.056 551.052 187.42 547.349C192.007 540.163 191.813 529.436 191.813 529.436L173.485 518.811C173.485 518.811 175.224 526.771 171.056 531.012C166.888 535.252 160.283 534.36 155.815 538.145C150.397 542.732 149.324 549.168 149.324 549.168L165.069 565.121" fill="#f7e0bb" fill-rule="nonzero" opacity="1" stroke="none"/>
<path d="M180.859 525.639L181.819 526.269L188.644 530.735C188.637 531.2 188.839 531.645 189.188 531.945C189.048 532.88 188.807 534.444 188.491 536.193C188.455 536.424 188.409 536.651 188.369 536.887C187.765 540.148 186.937 543.856 186.085 545.376C184.585 548.036 181.736 548.741 177.799 549.72L176.699 549.992C175.519 550.291 174.333 550.657 173.195 551.075C173 551.141 172.812 551.205 172.631 551.285C169.449 552.49 166.68 554.035 165.368 555.415C164.876 555.935 164.459 556.587 164.116 557.376C164.077 557.456 164.041 557.544 164.011 557.627C163.941 557.778 163.884 557.939 163.831 558.099C163.791 558.205 163.752 558.319 163.719 558.431C163.379 558.249 162.98 558.197 162.591 558.297C162.208 558.395 161.889 558.621 161.681 558.94L152.123 548.943C152.221 548.499 152.124 548.037 151.852 547.673C152.604 545.602 154.464 541.012 156.644 539.141C157.955 538.013 160.499 537.291 163.193 536.525C164.004 536.292 164.844 536.053 165.681 535.792C165.775 535.767 165.875 535.739 165.969 535.7C166.064 535.675 166.163 535.648 166.257 535.608C168.365 534.933 170.421 534.103 171.949 532.913C172.633 532.387 173.193 531.749 173.665 531.055C173.8 530.857 173.927 530.657 174.043 530.445C175.203 528.451 175.675 526.109 175.865 524.471C176.22 524.573 176.601 524.548 176.948 524.38C177.304 524.216 177.58 523.935 177.727 523.589L180.859 525.639ZM177.221 523.052C177.187 523.384 176.984 523.669 176.684 523.812C176.384 523.953 176.043 523.931 175.772 523.747C175.683 523.685 175.561 523.676 175.464 523.723C175.365 523.769 175.296 523.869 175.287 523.977C175.143 525.461 174.757 527.76 173.709 529.756C173.596 529.971 173.473 530.183 173.344 530.392C172.872 531.152 172.285 531.852 171.563 532.413C170.096 533.557 168.081 534.365 166.008 535.028C165.916 535.057 165.819 535.092 165.725 535.116C165.628 535.149 165.531 535.183 165.432 535.211C164.617 535.464 163.807 535.696 163.019 535.92C160.26 536.705 157.653 537.447 156.235 538.663C153.88 540.683 151.928 545.604 151.197 547.633C151.157 547.741 151.183 547.868 151.265 547.958C151.513 548.215 151.592 548.587 151.471 548.929C151.431 549.036 151.456 549.161 151.544 549.251L161.544 559.707C161.621 559.785 161.735 559.824 161.845 559.79C161.959 559.765 162.041 559.678 162.075 559.568C162.161 559.24 162.419 558.99 162.749 558.909C163.083 558.819 163.424 558.921 163.661 559.168C163.743 559.253 163.859 559.284 163.965 559.26C164.076 559.228 164.161 559.148 164.193 559.037C164.215 558.976 164.228 558.912 164.255 558.849C164.297 558.683 164.349 558.524 164.408 558.364C164.435 558.269 164.472 558.168 164.505 558.076C164.853 557.154 165.297 556.407 165.824 555.847C167.089 554.511 169.789 553.021 172.905 551.849C173.089 551.775 173.281 551.704 173.471 551.64C174.572 551.243 175.711 550.889 176.849 550.602L177.949 550.328C181.888 549.356 184.997 548.585 186.632 545.678C187.56 544.04 188.435 540.017 189.053 536.615C189.101 536.38 189.135 536.147 189.18 535.92C189.48 534.196 189.712 532.703 189.833 531.852C189.844 531.796 189.835 531.741 189.813 531.691C189.789 531.629 189.749 531.58 189.695 531.544C189.392 531.341 189.227 530.987 189.28 530.619C189.297 530.501 189.247 530.379 189.141 530.312L181.311 525.181L180.353 524.556L177.707 522.823C177.617 522.761 177.504 522.755 177.4 522.804C177.301 522.851 177.236 522.941 177.221 523.052" fill="#777ac5" fill-rule="nonzero" opacity="1" stroke="none"/>
<path d="M164.324 561.129L163.881 562.702L162.429 561.692L162.957 560.435L164.324 561.129" fill="#777ac5" fill-rule="nonzero" opacity="1" stroke="none"/>
<path d="M150.872 549.578L149.863 549.041L150.245 548.043L151.183 548.66L150.872 549.578" fill="#777ac5" fill-rule="nonzero" opacity="1" stroke="none"/>
<path d="M190.739 531.376L189.753 531.083L189.915 529.92L190.98 530.121L190.739 531.376" fill="#777ac5" fill-rule="nonzero" opacity="1" stroke="none"/>
<path d="M176.349 523.249L174.996 522.415L175.36 521.096L176.647 521.857L176.349 523.249" fill="#777ac5" fill-rule="nonzero" opacity="1" stroke="none"/>
<path d="M173.665 544.212C175.052 543.297 176.424 542.135 176.856 540.531C177.117 539.564 176.989 538.485 176.445 537.644C175.903 536.803 174.936 536.232 173.935 536.235C172.904 536.239 171.969 536.805 171.096 537.353C169.956 538.068 168.796 538.801 167.936 539.836C167.077 540.872 166.553 542.28 166.9 543.582C167.873 547.232 171.568 545.596 173.665 544.212" fill="#777ac5" fill-rule="nonzero" opacity="1" stroke="none"/>
<path d="M561.203 405.425C561.203 405.425 560.423 399.669 564.035 396.645C567.648 393.621 581.232 391.668 583.625 388.013C588.267 380.924 588.196 370.257 588.196 370.257L570.1 359.487C570.1 359.487 571.739 367.419 567.547 371.587C563.353 375.753 556.799 374.791 552.313 378.501C546.876 383 545.735 389.385 545.735 389.385L561.203 405.425" fill="#f7e0bb" fill-rule="nonzero" opacity="1" stroke="none"/>
<path d="M577.352 366.359L578.299 366.996L585.031 371.513C585.02 371.975 585.215 372.42 585.56 372.721C585.409 373.651 585.151 375.203 584.817 376.936C584.779 377.165 584.732 377.389 584.688 377.625C584.049 380.86 583.187 384.536 582.321 386.036C580.799 388.664 577.959 389.332 574.033 390.261L572.937 390.519C571.76 390.801 570.577 391.152 569.441 391.553C569.247 391.617 569.06 391.679 568.877 391.757C565.701 392.917 562.932 394.421 561.612 395.777C561.117 396.288 560.693 396.932 560.345 397.713C560.305 397.793 560.268 397.88 560.237 397.963C560.167 398.112 560.107 398.271 560.053 398.428C560.012 398.535 559.971 398.647 559.937 398.757C559.601 398.573 559.205 398.517 558.817 398.611C558.436 398.704 558.117 398.927 557.907 399.241L548.52 389.193C548.623 388.753 548.531 388.293 548.265 387.929C549.036 385.88 550.937 381.336 553.127 379.501C554.443 378.396 556.979 377.707 559.668 376.977C560.475 376.755 561.313 376.528 562.148 376.276C562.243 376.252 562.341 376.225 562.436 376.188C562.529 376.164 562.629 376.139 562.724 376.101C564.825 375.453 566.88 374.651 568.411 373.487C569.097 372.972 569.661 372.344 570.139 371.659C570.275 371.464 570.404 371.267 570.52 371.059C571.696 369.088 572.192 366.768 572.403 365.139C572.752 365.245 573.131 365.225 573.479 365.061C573.836 364.903 574.113 364.625 574.261 364.284L577.352 366.359ZM573.765 363.745C573.728 364.075 573.523 364.356 573.223 364.493C572.923 364.631 572.583 364.603 572.317 364.419C572.229 364.357 572.109 364.345 572.011 364.391C571.912 364.436 571.843 364.536 571.832 364.643C571.672 366.115 571.263 368.396 570.197 370.368C570.081 370.581 569.959 370.791 569.827 370.996C569.349 371.745 568.757 372.436 568.033 372.985C566.563 374.105 564.551 374.885 562.481 375.52C562.391 375.549 562.293 375.581 562.199 375.604C562.103 375.637 562.005 375.668 561.907 375.695C561.093 375.937 560.287 376.159 559.5 376.373C556.748 377.121 554.148 377.829 552.724 379.023C550.361 381.003 548.364 385.873 547.616 387.881C547.575 387.988 547.597 388.113 547.679 388.205C547.921 388.463 547.996 388.832 547.872 389.171C547.831 389.277 547.853 389.404 547.941 389.492L557.761 400C557.837 400.08 557.949 400.119 558.06 400.089C558.173 400.064 558.255 399.98 558.289 399.869C558.38 399.544 558.637 399.3 558.968 399.221C559.301 399.136 559.639 399.241 559.872 399.491C559.952 399.576 560.067 399.607 560.175 399.585C560.284 399.553 560.369 399.476 560.404 399.365C560.424 399.305 560.439 399.243 560.464 399.18C560.509 399.015 560.564 398.857 560.624 398.699C560.651 398.604 560.688 398.505 560.724 398.415C561.079 397.501 561.529 396.764 562.06 396.213C563.333 394.9 566.033 393.449 569.144 392.323C569.329 392.249 569.52 392.18 569.709 392.119C570.808 391.737 571.944 391.399 573.079 391.125L574.176 390.868C578.103 389.945 581.203 389.213 582.861 386.345C583.8 384.725 584.717 380.739 585.371 377.363C585.421 377.131 585.459 376.897 585.505 376.672C585.824 374.963 586.071 373.481 586.201 372.637C586.212 372.581 586.203 372.527 586.184 372.476C586.16 372.415 586.121 372.367 586.068 372.328C585.768 372.124 585.609 371.769 585.665 371.405C585.684 371.288 585.635 371.165 585.531 371.097L577.805 365.909L576.861 365.276L574.251 363.521C574.163 363.46 574.049 363.452 573.947 363.5C573.848 363.545 573.781 363.636 573.765 363.745" fill="#777ac5" fill-rule="nonzero" opacity="1" stroke="none"/>
<path d="M560.508 401.447L560.049 403.004L558.619 401.985L559.157 400.74L560.508 401.447" fill="#777ac5" fill-rule="nonzero" opacity="1" stroke="none"/>
<path d="M547.268 389.811L546.272 389.265L546.664 388.276L547.588 388.903L547.268 389.811" fill="#777ac5" fill-rule="nonzero" opacity="1" stroke="none"/>
<path d="M587.107 372.173L586.131 371.872L586.304 370.716L587.36 370.931L587.107 372.173" fill="#777ac5" fill-rule="nonzero" opacity="1" stroke="none"/>
<path d="M572.897 363.932L571.561 363.085L571.939 361.777L573.208 362.549L572.897 363.932" fill="#777ac5" fill-rule="nonzero" opacity="1" stroke="none"/>
<path d="M569.988 384.737C571.377 383.844 572.753 382.705 573.201 381.115C573.472 380.157 573.357 379.083 572.827 378.24C572.297 377.399 571.343 376.821 570.348 376.812C569.323 376.803 568.388 377.356 567.513 377.889C566.372 378.588 565.209 379.303 564.344 380.323C563.477 381.341 562.941 382.736 563.271 384.033C564.196 387.673 567.888 386.089 569.988 384.737" fill="#777ac5" fill-rule="nonzero" opacity="1" stroke="none"/>
<path d="M511.435 143.019C537.859 150.039 556.16 162.813 562.544 181.105" fill="none" opacity="1" stroke="#15213a" stroke-linecap="butt" stroke-linejoin="miter" stroke-width="0.543203"/>
<path d="M220.044 202.579C245.104 188.576 273.501 175.763 304.239 165.035C308.658 163.492 317.46 160.599 317.46 160.599C317.46 160.599 465 130.684 511.435 143.019" fill="none" opacity="1" stroke="#15213a" stroke-linecap="butt" stroke-linejoin="miter" stroke-width="0.543203"/>
<path d="M512.444 169.577C512.275 169.696 512.096 169.821 511.907 169.924C511.684 170.044 511.461 170.137 511.216 170.215L510.613 170.541L510.496 170.4C508.993 170.681 507.239 170.319 505.336 169.408C505.205 169.341 505.075 169.276 504.953 169.205C503.837 168.633 502.677 167.88 501.479 166.957C501.38 166.875 501.269 166.797 501.169 166.713C500.231 165.964 499.272 165.103 498.304 164.151C498.204 164.068 498.116 163.979 498.02 163.88C497.181 163.036 496.328 162.117 495.483 161.139C495.405 161.044 495.327 160.951 495.232 160.852C494.464 159.94 493.701 158.987 492.948 157.972C492.863 157.868 492.785 157.773 492.717 157.673C492.008 156.717 491.308 155.729 490.624 154.692C490.556 154.592 490.488 154.492 490.413 154.381C489.768 153.391 489.132 152.368 488.5 151.301C488.433 151.201 488.376 151.096 488.312 150.98C487.863 150.225 487.428 149.448 486.999 148.656C486.851 148.38 486.695 148.096 486.556 147.815L486.38 147.488C485.816 146.397 485.287 145.317 484.783 144.236C484.725 144.131 484.679 144.019 484.632 143.908C484.116 142.779 483.632 141.659 483.199 140.555C483.152 140.443 483.104 140.332 483.059 140.22C482.6 139.047 482.18 137.892 481.815 136.764C481.769 136.652 481.732 136.536 481.696 136.419C481.307 135.195 480.961 134 480.675 132.841C480.639 132.724 480.613 132.601 480.577 132.484C480.271 131.187 480.02 129.941 479.841 128.753C479.827 128.625 479.812 128.496 479.787 128.373C479.595 126.96 479.492 125.633 479.495 124.401C479.491 124.268 479.496 124.127 479.503 123.987C479.519 122.68 479.657 121.496 479.924 120.449C479.963 120.292 480.011 120.129 480.059 119.965C480.576 118.195 481.487 116.896 482.797 116.185C483.051 116.048 483.768 115.577 484.049 115.495L488.493 113.701L490.479 117.289C495.967 120.456 502.493 127.833 507.699 137.443C513.001 147.233 515.621 156.889 515.151 163.216L517.225 167.071L512.444 169.577" fill="#777ac5" fill-rule="nonzero" opacity="1" stroke="none"/>
<path d="M487.885 116.137L479.924 120.449C479.963 120.292 480.011 120.129 480.059 119.965L487.713 115.82L487.885 116.137" fill="#f7e0bb" fill-rule="nonzero" opacity="1" stroke="none"/>
<path d="M489.443 119.013L479.495 124.401C479.491 124.268 479.496 124.127 479.503 123.987L489.271 118.696L489.443 119.013" fill="#f7e0bb" fill-rule="nonzero" opacity="1" stroke="none"/>
<path d="M491.344 122.523L479.841 128.753C479.827 128.625 479.812 128.496 479.787 128.373L491.172 122.205L491.344 122.523" fill="#f7e0bb" fill-rule="nonzero" opacity="1" stroke="none"/>
<path d="M493.244 126.033L480.675 132.841C480.639 132.724 480.613 132.601 480.577 132.484L493.075 125.716L493.244 126.033" fill="#f7e0bb" fill-rule="nonzero" opacity="1" stroke="none"/>
<path d="M495.147 129.543L481.815 136.764C481.769 136.652 481.732 136.536 481.696 136.419L494.975 129.225L495.147 129.543" fill="#f7e0bb" fill-rule="nonzero" opacity="1" stroke="none"/>
<path d="M497.048 133.052L483.199 140.555C483.152 140.443 483.104 140.332 483.059 140.22L496.876 132.735L497.048 133.052" fill="#f7e0bb" fill-rule="nonzero" opacity="1" stroke="none"/>
<path d="M498.949 136.563L484.783 144.236C484.725 144.131 484.679 144.019 484.632 143.908L498.777 136.245L498.949 136.563" fill="#f7e0bb" fill-rule="nonzero" opacity="1" stroke="none"/>
<path d="M500.851 140.073L486.556 147.815L486.38 147.488L500.673 139.744L500.851 140.073" fill="#f7e0bb" fill-rule="nonzero" opacity="1" stroke="none"/>
<path d="M502.751 143.583L488.5 151.301C488.433 151.201 488.376 151.096 488.312 150.98L502.575 143.255L502.751 143.583" fill="#f7e0bb" fill-rule="nonzero" opacity="1" stroke="none"/>
<path d="M504.653 147.092L490.624 154.692C490.556 154.592 490.488 154.492 490.413 154.381L504.475 146.765L504.653 147.092" fill="#f7e0bb" fill-rule="nonzero" opacity="1" stroke="none"/>
<path d="M506.555 150.603L492.948 157.972C492.863 157.868 492.785 157.773 492.717 157.673L506.376 150.275L506.555 150.603" fill="#f7e0bb" fill-rule="nonzero" opacity="1" stroke="none"/>
<path d="M508.456 154.112L495.483 161.139C495.405 161.044 495.327 160.951 495.232 160.852L508.277 153.784L508.456 154.112" fill="#f7e0bb" fill-rule="nonzero" opacity="1" stroke="none"/>
<path d="M510.356 157.623L498.304 164.151C498.204 164.068 498.116 163.979 498.02 163.88L510.18 157.295L510.356 157.623" fill="#f7e0bb" fill-rule="nonzero" opacity="1" stroke="none"/>
<path d="M512.252 161.121L501.479 166.957C501.38 166.875 501.269 166.797 501.169 166.713L512.08 160.804L512.252 161.121" fill="#f7e0bb" fill-rule="nonzero" opacity="1" stroke="none"/>
<path d="M514.153 164.631L505.336 169.408C505.205 169.341 505.075 169.276 504.953 169.205L513.981 164.315L514.153 164.631" fill="#f7e0bb" fill-rule="nonzero" opacity="1" stroke="none"/>
<path d="M516.063 167.933C510.348 171.028 499.199 161.508 491.161 146.669C483.123 131.829 481.24 117.292 486.955 114.196C492.669 111.101 503.817 120.62 511.855 135.46C519.893 150.299 521.777 164.837 516.063 167.933" fill="#fab83f" fill-rule="nonzero" opacity="1" stroke="none"/>
<path d="M514.941 165.863C509.848 168.623 499.451 159.287 492.285 146.06C485.121 132.833 482.708 118.735 487.801 115.976C492.896 113.216 503.567 122.843 510.731 136.068C517.895 149.295 520.035 163.104 514.941 165.863Z" fill="none" opacity="1" stroke="#f7e0bb" stroke-linecap="butt" stroke-linejoin="miter" stroke-width="0.431684"/>
<path d="M508.576 151.747C508.751 151.627 508.875 151.497 508.929 151.348C508.993 151.2 508.98 151.008 508.897 150.787C508.825 150.565 508.74 150.363 508.648 150.203C508.557 150.041 508.413 149.8 508.211 149.475L507.347 148.085C507.781 147.499 507.919 146.711 507.752 145.719C507.585 144.727 507.195 143.755 506.593 142.783C505.977 141.776 505.344 141.029 504.7 140.545C504.061 140.051 503.492 139.776 502.984 139.732C502.477 139.677 502.003 139.691 501.564 139.741C501.253 139.779 500.967 139.799 500.695 139.789L500.603 139.776C500.52 139.773 500.435 139.772 500.363 139.761C499.993 139.705 499.708 139.505 499.477 139.145C498.852 138.137 498.86 137.445 499.497 137.047C499.832 136.844 500.317 136.971 500.975 137.425L501.12 137.511C501.776 137.901 502.208 138.029 502.416 137.904C502.592 137.783 502.673 137.521 502.652 137.099C502.603 136.376 502.457 135.808 502.201 135.401C502.039 135.156 501.737 134.86 501.281 134.529L500.853 134.224C500.579 134.025 500.196 133.841 499.696 133.672C499.196 133.503 498.732 133.455 498.279 133.535L497.329 132.005C497.128 131.671 496.972 131.437 496.869 131.285C496.756 131.132 496.624 130.965 496.449 130.792C496.277 130.608 496.113 130.511 495.959 130.497C495.801 130.484 495.628 130.532 495.453 130.643C495.268 130.752 495.155 130.883 495.1 131.032C495.047 131.181 495.049 131.371 495.132 131.593C495.203 131.824 495.288 132.027 495.38 132.187C495.48 132.359 495.623 132.601 495.817 132.915L496.004 133.216L496.189 133.516L496.791 134.489C496.397 135.081 496.247 135.877 496.348 136.892C496.369 137.095 496.392 137.297 496.445 137.505C496.468 137.624 496.504 137.744 496.536 137.876C496.749 138.632 497.132 139.447 497.684 140.327C497.853 140.604 498.024 140.861 498.189 141.085C498.268 141.192 498.337 141.297 498.417 141.393C498.717 141.773 499.007 142.091 499.304 142.345C499.843 142.825 500.317 143.095 500.716 143.165C501.116 143.236 501.521 143.255 501.933 143.241C502.357 143.221 502.712 143.169 503.02 143.079C503.315 142.996 503.631 143.001 503.937 143.121C504.257 143.232 504.535 143.484 504.781 143.877C504.984 144.203 505.084 144.521 505.061 144.812C505.048 145.115 504.956 145.312 504.793 145.413C504.632 145.505 504.488 145.557 504.339 145.576C504.189 145.585 504.076 145.579 503.975 145.544C503.887 145.509 503.777 145.461 503.66 145.401C503.532 145.341 503.456 145.297 503.417 145.271C503.06 145.133 502.799 145.116 502.649 145.209C502.407 145.361 502.377 145.829 502.552 146.633C502.647 147.047 502.755 147.379 502.864 147.636C502.901 147.747 502.948 147.849 502.999 147.929C503.008 147.941 503.025 147.965 503.035 147.967C503.189 148.2 503.473 148.411 503.891 148.641L503.991 148.677L504.224 148.805C504.371 148.871 504.603 148.936 504.909 148.992C505.228 149.051 505.531 149.053 505.833 149.004L506.688 150.383C506.943 150.788 507.148 151.103 507.297 151.304C507.445 151.504 507.641 151.671 507.877 151.779C508.112 151.899 508.344 151.891 508.576 151.747" fill="#f7e0bb" fill-rule="nonzero" opacity="1" stroke="none"/>
<path d="M382.087 290.975C396.047 285.933 503.677 354.932 525.924 390.009C548.173 425.087 597.545 526.804 597.545 526.804L616.348 546.99L628.275 551.771C629.848 552.401 629.799 554.649 628.192 555.192C623.773 556.685 616.287 558.212 607.837 555.7C595.601 552.061 591.879 543.241 591.879 543.241L598.912 562.314L595.019 563.897C595.019 563.897 579.633 544.188 585.131 532.337C585.131 532.337 564.821 504.735 551.492 491.232C538.163 477.731 506.472 446.157 501.148 419.715L324.956 313.064L382.087 290.975" fill="#f7bbf7" fill-rule="nonzero" opacity="1" stroke="none"/>
<path d="M598.912 562.314L591.879 543.241C591.879 543.241 595.601 552.061 607.837 555.7C616.287 558.212 623.773 556.685 628.192 555.192C629.799 554.649 629.848 552.401 628.275 551.771L616.348 546.99L607.837 537.853L602.692 544.032C598.272 540.766 589.092 536.907 584.269 534.991C581.764 546.907 595.019 563.897 595.019 563.897L598.912 562.314" fill="#15213a" fill-rule="nonzero" opacity="1" stroke="none"/>
<path d="M566.232 508.005C561.22 501.877 555.964 495.763 551.492 491.232C538.163 477.731 506.472 446.157 501.148 419.715L324.956 313.064L382.087 290.975C396.047 285.933 503.677 354.932 525.924 390.009C540.679 413.269 567.359 465.833 583.66 498.609" fill="#673ab7" fill-rule="nonzero" opacity="1" stroke="none"/>
<path d="M523.467 386.487C500.828 356.532 394.795 279.209 381.333 284.071L315.871 316.696L501.148 419.715C502.655 427.192 506.269 435.079 510.979 442.851C499.659 423.788 512.22 392.192 523.467 386.487" fill="#15213a" fill-rule="nonzero" opacity="1" stroke="none"/>
<path d="M431.884 158.469L434.393 145.005C434.393 145.005 432.929 141.547 431.648 136.531L424.629 127.104L426.388 126.553C427.783 126.116 429.304 126.5 430.324 127.547L435.653 133.021L441.041 109.52C441.228 108.707 441.989 108.159 442.82 108.237L442.82 108.237C443.681 108.32 444.335 109.049 444.323 109.916L444.117 124.867L453.696 126.704C455.473 127.045 456.745 128.579 456.804 130.388C456.944 134.683 456.051 142.339 448.759 146.679L449.129 159.223L431.884 158.469" fill="#f9c0c4" fill-rule="nonzero" opacity="1" stroke="none"/>
<path d="M437.277 132.653C437.277 132.653 444.892 135.54 443.981 144.252" fill="none" opacity="1" stroke="#15213a" stroke-linecap="butt" stroke-linejoin="miter" stroke-width="0.831119"/>
<path d="M444.117 124.867L443.381 132.008C443.184 133.935 444.489 135.695 446.391 136.064L455.789 137.887" fill="none" opacity="1" stroke="#15213a" stroke-linecap="butt" stroke-linejoin="miter" stroke-width="0.831119"/>
<path d="M448.371 126.361L447.167 136.213" fill="none" opacity="1" stroke="#15213a" stroke-linecap="butt" stroke-linejoin="miter" stroke-width="0.831119"/>
<path d="M452.797 127.375L451.592 137.228" fill="none" opacity="1" stroke="#15213a" stroke-linecap="butt" stroke-linejoin="miter" stroke-width="0.831119"/>
<path d="M429.103 158.515L430.355 149.492L451.756 150.812L452.113 160.416L429.103 158.515" fill="#fdfcf3" fill-rule="nonzero" opacity="1" stroke="none"/>
<path d="M352.779 176.005C367.548 179.171 415.483 210.136 415.483 210.136L428.385 156.191L453.773 157.876C453.773 157.876 455.564 202.105 453.587 227.461C451.611 252.817 426.511 270.239 402.563 252.483C382.323 237.476 349.056 209.271 349.056 209.271L352.779 176.005" fill="#f8be09" fill-rule="nonzero" opacity="1" stroke="none"/>
<path d="M426.384 217.635L415.483 210.136L419.124 194.911C422.26 205.383 426.384 217.635 426.384 217.635" fill="#15213a" fill-rule="nonzero" opacity="1" stroke="none"/>
<path d="M385.761 239.477C372.552 228.952 358.896 217.549 352.615 212.271L354.472 189.191C354.472 189.191 377.437 228.031 385.761 239.477L385.761 239.477" fill="#15213a" fill-rule="nonzero" opacity="1" stroke="none"/>
<path d="M305.087 135.955C318.224 130.376 324.979 133.987 327.997 139.308C331.808 146.021 326.876 149.588 329.368 154.713C331.861 159.839 340.185 161.273 342.339 170.052C344.493 178.831 341.636 184.367 341.636 184.367L280.325 220.335C280.325 220.335 271.788 209.52 273.111 198.857C274.435 188.195 286.745 182.728 284.22 167.517C281.32 150.044 286.465 134.863 305.087 135.955" fill="#15213a" fill-rule="nonzero" opacity="1" stroke="none"/>
<path d="M320.715 184.619C320.715 184.619 344.917 173.584 354.247 176.259C360.977 178.188 361.967 182.139 368.877 203.724C375.461 224.293 368.431 252.345 371 265.041C374.08 280.265 389.06 285.336 389.06 285.336L303.973 324.913L310.576 277.584L275.603 211.397C275.603 211.397 276.068 202.44 320.715 184.619" fill="#f8be09" fill-rule="nonzero" opacity="1" stroke="none"/>
<path d="M308.763 290.584L389.06 285.336L304.989 324.44L308.763 290.584Z" fill="#15213a" fill-rule="nonzero" opacity="1" stroke="none"/>
<path d="M302.812 231.855L310.576 277.584L295.733 249.495L302.812 231.855Z" fill="#15213a" fill-rule="nonzero" opacity="1" stroke="none"/>
<path d="M307.409 181.237C307.409 181.237 299.641 191.645 297.205 198.737C294.769 205.828 317.617 203.527 317.617 203.527C317.617 203.527 312.713 209.368 320.78 210.435C328.848 211.501 338.451 206.375 343.539 210.165C343.539 210.165 344.004 203.156 344.676 199.492C345.648 194.188 341.713 191.325 337.959 192.463C340.255 186.019 339.487 179.908 335.903 178.635C332.317 177.363 318.293 179.169 318.293 179.169L307.409 181.237" fill="#ffffff" fill-rule="nonzero" opacity="1" stroke="none"/>
<path d="M357.944 196.428L369.645 215.861" fill="none" opacity="1" stroke="#15213a" stroke-linecap="butt" stroke-linejoin="miter" stroke-width="0.782115"/>
<path d="M340.885 206.28L346.415 215.437C349.123 219.923 350.709 224.995 351.041 230.224L355.54 301.299" fill="none" opacity="1" stroke="#15213a" stroke-linecap="butt" stroke-linejoin="miter" stroke-width="0.782115"/>
<path d="M306.969 147.352C306.969 147.352 307.835 155.537 303.363 161.472C303.363 161.472 300.489 158.804 298.009 160.815C295.529 162.825 297.715 170.301 303.909 168.34L306.539 191.111C306.539 191.111 327.229 196.404 337.285 202.876C337.285 202.876 330.984 187.204 324.464 182.513L321.988 172.861C321.988 172.861 325.604 171.157 326.207 167.383C326.811 163.609 323.28 159.348 322.803 155.971C322.325 152.595 321.835 149.612 321.835 149.612C321.835 149.612 313.939 153.325 306.969 147.352" fill="#f9c0c4" fill-rule="nonzero" opacity="1" stroke="none"/>
<path d="M321.988 172.861C317.095 175.492 310.753 174.533 308.659 172.504C311.281 177.279 316.721 179.836 323.184 177.523L321.988 172.861" fill="#15213a" fill-rule="nonzero" opacity="1" stroke="none"/>
<path d="M346.24 370.331C392.128 377.037 454.351 352.447 456.695 351.771L461.205 350.469C461.205 350.469 460.245 375.756 469.261 406.991C478.276 438.225 482.453 469.677 478.545 483.755C475.243 495.651 478.377 506.508 485.103 521.887L487.817 521.103L483.8 502.657C483.8 502.657 489.76 512.047 497.368 515.732C504.977 519.419 517.572 520.031 518.129 518.563C518.685 517.096 506.495 506.563 506.495 506.563L494.007 481.411C494.007 481.411 498.641 409.161 500.249 381.901C501.859 354.641 501.84 327.901 501.971 317.279C502.155 302.423 489.483 287.507 472.423 292.431L337.203 304.885C333.769 305.877 284.835 361.356 346.24 370.331" fill="#f9c0c4" fill-rule="nonzero" opacity="1" stroke="none"/>
<path d="M461.205 350.469C461.787 335.221 468.493 320.229 468.493 320.229" fill="none" opacity="1" stroke="#15213a" stroke-linecap="butt" stroke-linejoin="miter" stroke-width="0.782115"/>
<path d="M500.961 495.417L492.883 499.66C488.309 497.36 481.253 488.392 478.381 484.427C475.379 496.06 478.504 506.8 485.103 521.887L487.817 521.103L483.8 502.657C483.8 502.657 489.76 512.047 497.368 515.732C504.977 519.419 517.572 520.031 518.129 518.563C518.685 517.096 506.495 506.563 506.495 506.563L500.961 495.417" fill="#15213a" fill-rule="nonzero" opacity="1" stroke="none"/>
<path d="M495.225 462.333C496.715 438.972 499.168 400.248 500.249 381.901C501.859 354.641 501.84 327.901 501.971 317.279C502.155 302.423 489.483 287.507 472.423 292.431L337.203 304.885C333.769 305.877 284.835 361.356 346.24 370.331C392.128 377.037 454.351 352.447 456.695 351.771L461.205 350.469C461.205 350.469 460.245 375.756 469.261 406.991C474.896 426.512 478.64 446.119 479.703 461.516" fill="#673ab7" fill-rule="nonzero" opacity="1" stroke="none"/>
<path d="M339.476 320.811L349.572 315.74C349.572 315.74 366.36 316.257 369.913 308.503C369.913 308.503 370.332 305.204 368.281 304.515C370.155 301.057 367.509 299.724 367.509 299.724C367.509 299.724 368.144 295.447 365.675 295.077C366.904 292.316 365.405 289.744 363.609 289.467C361.885 289.2 360.393 296.501 352.433 297.556C352.433 297.556 351.704 293.613 354.501 290.703C355.201 289.976 355.101 288.739 354.373 288.039L353.365 287.069C353.365 287.069 345.676 292.545 345.437 299.8C345.397 301.004 344.804 302.119 343.759 302.716L333.991 308.303L339.476 320.811" fill="#f9c0c4" fill-rule="nonzero" opacity="1" stroke="none"/>
<path d="M275.603 211.397C267.951 233.7 220.921 361.765 273.225 357.067C300.943 354.576 348.435 325.249 348.435 325.249L341.256 299.387L293.715 314.453L302.812 231.855C302.812 231.855 290.892 211.684 275.603 211.397" fill="#f8be09" fill-rule="nonzero" opacity="1" stroke="none"/>
<path d="M293.715 314.453L272.665 321.469C272.665 321.469 280.725 308.645 293.715 314.453" fill="#15213a" fill-rule="nonzero" opacity="1" stroke="none"/>
<path d="M562.544 181.105C578.515 226.864 514.625 291.991 415.059 336.644" fill="none" opacity="1" stroke="#15213a" stroke-linecap="butt" stroke-linejoin="miter" stroke-width="0.543203"/>
<path d="M242.325 185.491C242.449 185.572 242.581 185.657 242.701 185.757C242.843 185.875 242.965 185.999 243.084 186.141L243.465 186.457L243.403 186.575C243.997 187.505 244.231 188.78 244.133 190.303C244.125 190.408 244.117 190.515 244.101 190.615C244.021 191.517 243.829 192.499 243.535 193.552C243.505 193.641 243.484 193.736 243.456 193.825C243.207 194.657 242.889 195.535 242.512 196.44C242.484 196.529 242.448 196.613 242.408 196.704C242.069 197.496 241.684 198.316 241.256 199.148C241.215 199.225 241.172 199.304 241.132 199.393C240.728 200.155 240.295 200.925 239.819 201.705C239.771 201.789 239.729 201.868 239.681 201.94C239.232 202.675 238.759 203.411 238.248 204.151C238.199 204.224 238.151 204.296 238.096 204.376C237.607 205.076 237.093 205.78 236.549 206.492C236.501 206.565 236.445 206.632 236.384 206.705C236 207.212 235.597 207.713 235.181 208.215C235.037 208.389 234.888 208.571 234.737 208.74L234.565 208.947C233.988 209.62 233.407 210.268 232.819 210.897C232.763 210.964 232.7 211.027 232.639 211.088C232.021 211.74 231.401 212.367 230.777 212.956C230.716 213.019 230.653 213.079 230.592 213.141C229.928 213.765 229.269 214.359 228.611 214.909C228.548 214.971 228.48 215.027 228.411 215.083C227.695 215.676 226.988 216.231 226.289 216.736C226.22 216.792 226.144 216.843 226.076 216.899C225.289 217.455 224.521 217.96 223.773 218.401C223.691 218.445 223.608 218.491 223.533 218.541C222.637 219.052 221.776 219.48 220.949 219.812C220.86 219.851 220.764 219.884 220.669 219.919C219.788 220.261 218.957 220.489 218.183 220.593C218.067 220.611 217.944 220.623 217.823 220.633C216.495 220.765 215.377 220.508 214.547 219.821C214.385 219.688 213.876 219.335 213.743 219.168L211.339 216.673L213.207 214.371C213.845 209.833 217.025 203.461 222.06 197.369C227.189 191.164 232.957 186.795 237.327 185.397L239.349 182.963L242.325 185.491" fill="#777ac5" fill-rule="nonzero" opacity="1" stroke="none"/>
<path d="M213.136 216.421L218.183 220.593C218.067 220.611 217.944 220.623 217.823 220.633L212.969 216.623L213.136 216.421" fill="#f7e0bb" fill-rule="nonzero" opacity="1" stroke="none"/>
<path d="M214.643 214.6L220.949 219.812C220.86 219.851 220.764 219.884 220.669 219.919L214.477 214.8L214.643 214.6" fill="#f7e0bb" fill-rule="nonzero" opacity="1" stroke="none"/>
<path d="M216.483 212.375L223.773 218.401C223.691 218.445 223.608 218.491 223.533 218.541L216.316 212.575L216.483 212.375" fill="#f7e0bb" fill-rule="nonzero" opacity="1" stroke="none"/>
<path d="M218.321 210.149L226.289 216.736C226.22 216.792 226.144 216.843 226.076 216.899L218.155 210.351L218.321 210.149" fill="#f7e0bb" fill-rule="nonzero" opacity="1" stroke="none"/>
<path d="M220.16 207.925L228.611 214.909C228.548 214.971 228.48 215.027 228.411 215.083L219.993 208.127L220.16 207.925" fill="#f7e0bb" fill-rule="nonzero" opacity="1" stroke="none"/>
<path d="M221.999 205.7L230.777 212.956C230.716 213.019 230.653 213.079 230.592 213.141L221.833 205.901L221.999 205.7" fill="#f7e0bb" fill-rule="nonzero" opacity="1" stroke="none"/>
<path d="M223.839 203.475L232.819 210.897C232.763 210.964 232.7 211.027 232.639 211.088L223.672 203.676L223.839 203.475" fill="#f7e0bb" fill-rule="nonzero" opacity="1" stroke="none"/>
<path d="M225.677 201.251L234.737 208.74L234.565 208.947L225.505 201.459L225.677 201.251" fill="#f7e0bb" fill-rule="nonzero" opacity="1" stroke="none"/>
<path d="M227.516 199.025L236.549 206.492C236.501 206.565 236.445 206.632 236.384 206.705L227.344 199.233L227.516 199.025" fill="#f7e0bb" fill-rule="nonzero" opacity="1" stroke="none"/>
<path d="M229.355 196.8L238.248 204.151C238.199 204.224 238.151 204.296 238.096 204.376L229.184 197.008L229.355 196.8" fill="#f7e0bb" fill-rule="nonzero" opacity="1" stroke="none"/>
<path d="M231.195 194.575L239.819 201.705C239.771 201.789 239.729 201.868 239.681 201.94L231.023 194.784L231.195 194.575" fill="#f7e0bb" fill-rule="nonzero" opacity="1" stroke="none"/>
<path d="M233.033 192.351L241.256 199.148C241.215 199.225 241.172 199.304 241.132 199.393L232.861 192.559L233.033 192.351" fill="#f7e0bb" fill-rule="nonzero" opacity="1" stroke="none"/>
<path d="M234.872 190.127L242.512 196.44C242.484 196.529 242.448 196.613 242.408 196.704L234.7 190.333L234.872 190.127" fill="#f7e0bb" fill-rule="nonzero" opacity="1" stroke="none"/>
<path d="M236.705 187.908L243.535 193.552C243.505 193.641 243.484 193.736 243.456 193.825L236.54 188.109L236.705 187.908" fill="#f7e0bb" fill-rule="nonzero" opacity="1" stroke="none"/>
<path d="M238.545 185.683L244.133 190.303C244.125 190.408 244.117 190.515 244.101 190.615L238.379 185.884L238.545 185.683" fill="#f7e0bb" fill-rule="nonzero" opacity="1" stroke="none"/>
<path d="M240.243 183.509C243.864 186.504 240.497 196.556 232.723 205.963C224.948 215.368 215.709 220.567 212.087 217.572C208.464 214.577 211.831 204.525 219.605 195.12C227.381 185.713 236.62 180.516 240.243 183.509" fill="#fab83f" fill-rule="nonzero" opacity="1" stroke="none"/>
<path d="M239.159 184.821C242.387 187.491 238.94 196.989 232.011 205.373C225.08 213.756 216.279 219.191 213.051 216.521C209.823 213.852 213.388 204.092 220.319 195.709C227.248 187.324 235.929 182.153 239.159 184.821Z" fill="none" opacity="1" stroke="#f7e0bb" stroke-linecap="butt" stroke-linejoin="miter" stroke-width="0.312157"/>
<path d="M231.415 192.911C231.287 192.825 231.167 192.777 231.051 192.781C230.935 192.779 230.811 192.839 230.684 192.955C230.555 193.063 230.443 193.175 230.359 193.28C230.276 193.384 230.153 193.545 229.991 193.769L229.292 194.725C228.781 194.593 228.215 194.713 227.596 195.093C226.976 195.473 226.429 195.999 225.94 196.665C225.432 197.351 225.104 197.979 224.952 198.54C224.793 199.103 224.764 199.559 224.872 199.912C224.972 200.267 225.109 200.581 225.261 200.861C225.371 201.059 225.463 201.245 225.529 201.431L225.545 201.496C225.567 201.553 225.588 201.609 225.6 201.661C225.663 201.924 225.605 202.169 225.427 202.421C224.921 203.115 224.455 203.296 224.015 202.976C223.788 202.807 223.741 202.447 223.868 201.883L223.885 201.763C223.971 201.217 223.94 200.892 223.799 200.787C223.671 200.703 223.473 200.719 223.195 200.847C222.724 201.076 222.383 201.327 222.18 201.608C222.06 201.784 221.941 202.067 221.844 202.461L221.755 202.831C221.695 203.069 221.676 203.375 221.697 203.756C221.72 204.137 221.813 204.463 221.989 204.744L221.22 205.795C221.051 206.02 220.936 206.187 220.863 206.297C220.791 206.415 220.715 206.549 220.645 206.713C220.569 206.879 220.548 207.015 220.581 207.123C220.615 207.231 220.693 207.335 220.815 207.421C220.937 207.516 221.056 207.557 221.171 207.552C221.285 207.548 221.412 207.495 221.539 207.38C221.675 207.269 221.787 207.157 221.871 207.052C221.959 206.939 222.083 206.777 222.24 206.563L222.391 206.356L222.543 206.149L223.032 205.484C223.536 205.587 224.111 205.472 224.763 205.131C224.893 205.061 225.023 204.991 225.148 204.899C225.221 204.851 225.293 204.795 225.372 204.737C225.821 204.389 226.264 203.912 226.705 203.304C226.845 203.116 226.971 202.932 227.076 202.76C227.127 202.679 227.179 202.604 227.221 202.524C227.396 202.22 227.529 201.94 227.62 201.672C227.796 201.181 227.848 200.789 227.788 200.503C227.727 200.216 227.629 199.939 227.509 199.665C227.381 199.387 227.249 199.164 227.105 198.981C226.971 198.805 226.889 198.593 226.885 198.355C226.873 198.111 226.967 197.856 227.165 197.584C227.327 197.36 227.515 197.207 227.716 197.144C227.923 197.071 228.079 197.079 228.191 197.16C228.297 197.244 228.371 197.327 228.424 197.421C228.471 197.519 228.497 197.597 228.5 197.673C228.501 197.743 228.499 197.828 228.491 197.924C228.484 198.025 228.476 198.089 228.468 198.123C228.473 198.399 228.531 198.577 228.635 198.655C228.803 198.776 229.125 198.668 229.616 198.333C229.868 198.157 230.06 197.995 230.204 197.852C230.269 197.799 230.324 197.739 230.364 197.683C230.369 197.673 230.381 197.656 230.38 197.648C230.493 197.481 230.559 197.235 230.6 196.892L230.597 196.816L230.621 196.625C230.624 196.508 230.605 196.335 230.56 196.113C230.513 195.885 230.433 195.68 230.319 195.491L231.011 194.545C231.215 194.265 231.369 194.043 231.464 193.888C231.557 193.735 231.616 193.557 231.625 193.371C231.641 193.181 231.575 193.027 231.415 192.911" fill="#f7e0bb" fill-rule="nonzero" opacity="1" stroke="none"/>
<path d="M470.589 290.151C470.872 290.332 471.169 290.528 471.441 290.753C471.76 291.016 472.039 291.296 472.305 291.62L473.169 292.333L473.027 292.599C474.372 294.704 474.896 297.587 474.679 301.027C474.659 301.267 474.64 301.505 474.605 301.732C474.423 303.773 473.992 305.992 473.324 308.373C473.259 308.575 473.209 308.788 473.145 308.991C472.584 310.872 471.865 312.852 471.012 314.901C470.948 315.103 470.868 315.293 470.775 315.496C470.011 317.287 469.14 319.141 468.173 321.02C468.077 321.197 467.983 321.373 467.891 321.577C466.98 323.297 466 325.037 464.925 326.801C464.817 326.992 464.723 327.169 464.612 327.333C463.597 328.993 462.527 330.657 461.375 332.331C461.264 332.495 461.153 332.659 461.031 332.839C459.925 334.423 458.764 336.013 457.535 337.623C457.424 337.788 457.299 337.939 457.161 338.105C456.293 339.249 455.381 340.381 454.443 341.519C454.117 341.912 453.779 342.321 453.437 342.703L453.049 343.172C451.743 344.692 450.429 346.157 449.1 347.581C448.973 347.732 448.833 347.872 448.693 348.011C447.297 349.484 445.896 350.9 444.488 352.235C444.348 352.375 444.207 352.513 444.067 352.652C442.568 354.064 441.076 355.407 439.588 356.651C439.448 356.789 439.293 356.916 439.137 357.043C437.52 358.383 435.921 359.637 434.341 360.777C434.185 360.905 434.015 361.019 433.859 361.145C432.08 362.403 430.345 363.545 428.653 364.544C428.467 364.644 428.281 364.745 428.111 364.86C426.085 366.015 424.139 366.983 422.269 367.731C422.069 367.821 421.852 367.896 421.636 367.973C419.644 368.749 417.767 369.263 416.016 369.497C415.755 369.537 415.477 369.563 415.201 369.589C412.2 369.888 409.673 369.304 407.796 367.752C407.432 367.451 406.281 366.653 405.98 366.276L400.545 360.636L404.769 355.433C406.211 345.176 413.4 330.771 424.783 317.001C436.377 302.975 449.412 293.096 459.289 289.937L463.863 284.436L470.589 290.151" fill="#777ac5" fill-rule="nonzero" opacity="1" stroke="none"/>
<path d="M404.609 360.069L416.016 369.497C415.755 369.537 415.477 369.563 415.201 369.589L404.233 360.524L404.609 360.069" fill="#f7e0bb" fill-rule="nonzero" opacity="1" stroke="none"/>
<path d="M408.016 355.948L422.269 367.731C422.069 367.821 421.852 367.896 421.636 367.973L407.64 356.403L408.016 355.948" fill="#f7e0bb" fill-rule="nonzero" opacity="1" stroke="none"/>
<path d="M412.172 350.92L428.653 364.544C428.467 364.644 428.281 364.745 428.111 364.86L411.797 351.375L412.172 350.92" fill="#f7e0bb" fill-rule="nonzero" opacity="1" stroke="none"/>
<path d="M416.329 345.889L434.341 360.777C434.185 360.905 434.015 361.019 433.859 361.145L415.953 346.345L416.329 345.889" fill="#f7e0bb" fill-rule="nonzero" opacity="1" stroke="none"/>
<path d="M420.487 340.861L439.588 356.651C439.448 356.789 439.293 356.916 439.137 357.043L420.111 341.316L420.487 340.861" fill="#f7e0bb" fill-rule="nonzero" opacity="1" stroke="none"/>
<path d="M424.644 335.832L444.488 352.235C444.348 352.375 444.207 352.513 444.067 352.652L424.268 336.287L424.644 335.832" fill="#f7e0bb" fill-rule="nonzero" opacity="1" stroke="none"/>
<path d="M428.8 330.803L449.1 347.581C448.973 347.732 448.833 347.872 448.693 348.011L428.425 331.257L428.8 330.803" fill="#f7e0bb" fill-rule="nonzero" opacity="1" stroke="none"/>
<path d="M432.957 325.773L453.437 342.703L453.049 343.172L432.571 326.243L432.957 325.773" fill="#f7e0bb" fill-rule="nonzero" opacity="1" stroke="none"/>
<path d="M437.115 320.744L457.535 337.623C457.424 337.788 457.299 337.939 457.161 338.105L436.727 321.213L437.115 320.744" fill="#f7e0bb" fill-rule="nonzero" opacity="1" stroke="none"/>
<path d="M441.272 315.715L461.375 332.331C461.264 332.495 461.153 332.659 461.031 332.839L440.884 316.185L441.272 315.715" fill="#f7e0bb" fill-rule="nonzero" opacity="1" stroke="none"/>
<path d="M445.429 310.685L464.925 326.801C464.817 326.992 464.723 327.169 464.612 327.333L445.041 311.156L445.429 310.685" fill="#f7e0bb" fill-rule="nonzero" opacity="1" stroke="none"/>
<path d="M449.587 305.657L468.173 321.02C468.077 321.197 467.983 321.373 467.891 321.577L449.197 306.127L449.587 305.657" fill="#f7e0bb" fill-rule="nonzero" opacity="1" stroke="none"/>
<path d="M453.743 300.628L471.012 314.901C470.948 315.103 470.868 315.293 470.775 315.496L453.355 301.097L453.743 300.628" fill="#f7e0bb" fill-rule="nonzero" opacity="1" stroke="none"/>
<path d="M457.888 295.613L473.324 308.373C473.259 308.575 473.209 308.788 473.145 308.991L457.512 296.068L457.888 295.613" fill="#f7e0bb" fill-rule="nonzero" opacity="1" stroke="none"/>
<path d="M462.045 290.584L474.679 301.027C474.659 301.267 474.64 301.505 474.605 301.732L461.669 291.039L462.045 290.584" fill="#f7e0bb" fill-rule="nonzero" opacity="1" stroke="none"/>
<path d="M465.881 285.671C474.069 292.439 466.46 315.163 448.884 336.424C431.309 357.687 410.424 369.436 402.236 362.668C394.048 355.9 401.657 333.177 419.233 311.915C436.808 290.653 457.693 278.903 465.881 285.671" fill="#fab83f" fill-rule="nonzero" opacity="1" stroke="none"/>
<path d="M463.431 288.636C470.728 294.669 462.937 316.141 447.273 335.093C431.608 354.044 411.715 366.327 404.416 360.293C397.117 354.263 405.18 332.197 420.844 313.247C436.509 294.296 456.132 282.604 463.431 288.636Z" fill="none" opacity="1" stroke="#f7e0bb" stroke-linecap="butt" stroke-linejoin="miter" stroke-width="0.705625"/>
<path d="M445.927 306.921C445.636 306.729 445.365 306.62 445.105 306.629C444.843 306.623 444.561 306.76 444.273 307.021C443.984 307.265 443.729 307.519 443.543 307.756C443.353 307.992 443.075 308.357 442.708 308.864L441.129 311.024C439.975 310.724 438.695 310.996 437.293 311.856C435.893 312.716 434.659 313.904 433.552 315.409C432.404 316.96 431.66 318.377 431.319 319.648C430.961 320.921 430.893 321.951 431.136 322.748C431.364 323.549 431.673 324.261 432.019 324.895C432.265 325.343 432.471 325.764 432.624 326.181L432.659 326.331C432.708 326.459 432.756 326.587 432.784 326.703C432.927 327.296 432.797 327.852 432.392 328.42C431.248 329.988 430.193 330.397 429.2 329.676C428.688 329.292 428.58 328.479 428.869 327.204L428.909 326.933C429.103 325.699 429.031 324.964 428.712 324.727C428.421 324.535 427.976 324.572 427.347 324.861C426.283 325.38 425.511 325.948 425.051 326.583C424.78 326.98 424.515 327.62 424.292 328.512L424.089 329.347C423.957 329.884 423.913 330.576 423.963 331.437C424.012 332.299 424.223 333.035 424.621 333.673L422.884 336.045C422.5 336.557 422.241 336.933 422.073 337.183C421.911 337.449 421.739 337.752 421.583 338.121C421.409 338.495 421.361 338.804 421.437 339.047C421.513 339.292 421.692 339.528 421.967 339.724C422.245 339.936 422.512 340.031 422.771 340.02C423.031 340.011 423.317 339.889 423.603 339.629C423.911 339.38 424.164 339.128 424.352 338.891C424.552 338.632 424.832 338.269 425.187 337.781L425.529 337.316L425.872 336.849L426.977 335.344C428.116 335.576 429.416 335.317 430.891 334.545C431.185 334.387 431.479 334.229 431.761 334.021C431.927 333.912 432.089 333.787 432.268 333.656C433.284 332.871 434.284 331.792 435.281 330.417C435.599 329.992 435.883 329.575 436.121 329.185C436.235 329.001 436.352 328.833 436.448 328.653C436.841 327.965 437.144 327.333 437.348 326.725C437.745 325.617 437.865 324.733 437.728 324.084C437.589 323.436 437.369 322.808 437.1 322.191C436.808 321.563 436.513 321.057 436.187 320.645C435.881 320.248 435.697 319.768 435.689 319.228C435.663 318.676 435.875 318.101 436.321 317.488C436.688 316.98 437.112 316.633 437.567 316.491C438.033 316.325 438.387 316.345 438.641 316.529C438.879 316.716 439.045 316.904 439.167 317.119C439.272 317.339 439.332 317.516 439.339 317.689C439.341 317.847 439.335 318.04 439.317 318.253C439.301 318.484 439.284 318.628 439.268 318.703C439.277 319.328 439.409 319.733 439.643 319.905C440.023 320.18 440.751 319.936 441.861 319.18C442.431 318.783 442.867 318.416 443.191 318.093C443.336 317.971 443.461 317.836 443.553 317.709C443.565 317.688 443.591 317.648 443.587 317.631C443.845 317.255 443.992 316.696 444.085 315.923L444.079 315.749L444.132 315.317C444.139 315.053 444.097 314.661 443.995 314.163C443.888 313.647 443.708 313.184 443.448 312.756L445.015 310.617C445.473 309.983 445.824 309.48 446.037 309.131C446.251 308.783 446.383 308.384 446.404 307.961C446.44 307.532 446.287 307.185 445.927 306.921" fill="#f7e0bb" fill-rule="nonzero" opacity="1" stroke="none"/>
<path d="M415.059 336.644C400.836 343.023 385.884 348.984 370.333 354.412C274.299 387.928 183.485 391.284 138.661 367.017" fill="none" opacity="1" stroke="#15213a" stroke-linecap="butt" stroke-linejoin="miter" stroke-width="0.543203"/>
<path d="M147.207 310.223C147.519 310.16 147.849 310.096 148.181 310.069C148.571 310.037 148.943 310.044 149.339 310.085L150.393 309.999L150.471 310.272C152.771 310.809 155.025 312.413 157.148 314.884C157.292 315.059 157.437 315.233 157.563 315.408C158.785 316.911 159.957 318.696 161.076 320.747C161.164 320.927 161.272 321.103 161.361 321.283C162.223 322.925 163.044 324.74 163.819 326.688C163.908 326.868 163.977 327.048 164.049 327.247C164.713 328.963 165.348 330.792 165.933 332.7C165.985 332.883 166.037 333.064 166.109 333.264C166.628 335.028 167.112 336.852 167.548 338.753C167.601 338.953 167.653 339.136 167.687 339.319C168.096 341.111 168.469 342.943 168.793 344.836C168.825 345.02 168.86 345.204 168.895 345.405C169.192 347.207 169.456 349.048 169.687 350.948C169.72 351.132 169.735 351.317 169.751 351.52C169.917 352.867 170.049 354.235 170.163 355.623C170.203 356.103 170.243 356.603 170.265 357.087L170.312 357.659C170.429 359.549 170.508 361.407 170.548 363.248C170.563 363.433 170.559 363.62 170.556 363.807C170.583 365.723 170.569 367.605 170.496 369.437C170.493 369.624 170.491 369.812 170.487 369.997C170.404 371.941 170.28 373.833 170.095 375.657C170.091 375.843 170.069 376.032 170.048 376.219C169.837 378.193 169.583 380.096 169.267 381.909C169.244 382.099 169.205 382.287 169.183 382.476C168.808 384.499 168.388 386.416 167.903 388.208C167.843 388.399 167.784 388.589 167.744 388.779C167.136 390.897 166.457 392.835 165.687 394.575C165.609 394.768 165.513 394.961 165.417 395.156C164.581 396.993 163.649 398.58 162.621 399.893C162.469 400.093 162.3 400.293 162.131 400.493C160.297 402.675 158.203 403.945 155.908 404.135C155.464 404.171 154.159 404.389 153.708 404.333L146.311 404.103L145.737 397.797C139.947 389.907 135.311 375.421 133.928 358.6C132.52 341.463 134.824 326.183 139.424 317.532L138.888 310.795L147.207 310.223" fill="#777ac5" fill-rule="nonzero" opacity="1" stroke="none"/>
<path d="M148.687 401.039L162.621 399.893C162.469 400.093 162.3 400.293 162.131 400.493L148.732 401.595L148.687 401.039" fill="#f7e0bb" fill-rule="nonzero" opacity="1" stroke="none"/>
<path d="M148.272 396.004L165.687 394.575C165.609 394.768 165.513 394.961 165.417 395.156L148.319 396.56L148.272 396.004" fill="#f7e0bb" fill-rule="nonzero" opacity="1" stroke="none"/>
<path d="M147.768 389.861L167.903 388.208C167.843 388.399 167.784 388.589 167.744 388.779L147.813 390.416L147.768 389.861" fill="#f7e0bb" fill-rule="nonzero" opacity="1" stroke="none"/>
<path d="M147.264 383.716L169.267 381.909C169.244 382.099 169.205 382.287 169.183 382.476L147.309 384.272L147.264 383.716" fill="#f7e0bb" fill-rule="nonzero" opacity="1" stroke="none"/>
<path d="M146.759 377.573L170.095 375.657C170.091 375.843 170.069 376.032 170.048 376.219L146.804 378.128L146.759 377.573" fill="#f7e0bb" fill-rule="nonzero" opacity="1" stroke="none"/>
<path d="M146.253 371.429L170.496 369.437C170.493 369.624 170.491 369.812 170.487 369.997L146.299 371.985L146.253 371.429" fill="#f7e0bb" fill-rule="nonzero" opacity="1" stroke="none"/>
<path d="M145.749 365.285L170.548 363.248C170.563 363.433 170.559 363.62 170.556 363.807L145.795 365.84L145.749 365.285" fill="#f7e0bb" fill-rule="nonzero" opacity="1" stroke="none"/>
<path d="M145.244 359.141L170.265 357.087L170.312 357.659L145.292 359.715L145.244 359.141" fill="#f7e0bb" fill-rule="nonzero" opacity="1" stroke="none"/>
<path d="M144.74 352.997L169.687 350.948C169.72 351.132 169.735 351.317 169.751 351.52L144.787 353.571L144.74 352.997" fill="#f7e0bb" fill-rule="nonzero" opacity="1" stroke="none"/>
<path d="M144.235 346.853L168.793 344.836C168.825 345.02 168.86 345.204 168.895 345.405L144.283 347.427L144.235 346.853" fill="#f7e0bb" fill-rule="nonzero" opacity="1" stroke="none"/>
<path d="M143.731 340.709L167.548 338.753C167.601 338.953 167.653 339.136 167.687 339.319L143.777 341.283L143.731 340.709" fill="#f7e0bb" fill-rule="nonzero" opacity="1" stroke="none"/>
<path d="M143.225 334.565L165.933 332.7C165.985 332.883 166.037 333.064 166.109 333.264L143.273 335.139L143.225 334.565" fill="#f7e0bb" fill-rule="nonzero" opacity="1" stroke="none"/>
<path d="M142.721 328.421L163.819 326.688C163.908 326.868 163.977 327.048 164.049 327.247L142.768 328.995L142.721 328.421" fill="#f7e0bb" fill-rule="nonzero" opacity="1" stroke="none"/>
<path d="M142.217 322.296L161.076 320.747C161.164 320.927 161.272 321.103 161.361 321.283L142.264 322.851L142.217 322.296" fill="#f7e0bb" fill-rule="nonzero" opacity="1" stroke="none"/>
<path d="M141.713 316.152L157.148 314.884C157.292 315.059 157.437 315.233 157.563 315.408L141.759 316.707L141.713 316.152" fill="#f7e0bb" fill-rule="nonzero" opacity="1" stroke="none"/>
<path d="M141.069 310.297C151.072 309.476 160.909 329.868 163.044 355.841C165.177 381.817 158.797 403.541 148.795 404.363C138.792 405.184 128.953 384.793 126.82 358.819C124.687 332.843 131.065 311.12 141.069 310.297" fill="#fab83f" fill-rule="nonzero" opacity="1" stroke="none"/>
<path d="M141.365 313.92C150.281 313.188 159.173 332.852 161.076 356.004C162.977 379.156 157.62 400.587 148.703 401.319C139.788 402.051 130.689 381.808 128.788 358.656C126.887 335.504 132.451 314.653 141.365 313.92Z" fill="none" opacity="1" stroke="#f7e0bb" stroke-linecap="butt" stroke-linejoin="miter" stroke-width="0.666667"/>
<path d="M141.585 337.835C141.261 337.896 141.005 338 140.837 338.179C140.655 338.348 140.553 338.627 140.532 338.992C140.496 339.349 140.492 339.688 140.521 339.972C140.551 340.256 140.603 340.687 140.688 341.272L141.045 343.773C140.067 344.332 139.38 345.361 138.999 346.867C138.619 348.373 138.567 349.991 138.811 351.737C139.056 353.544 139.489 354.993 140.096 356.077C140.693 357.176 141.325 357.917 142.017 358.296C142.699 358.688 143.379 358.965 144.029 359.165C144.492 359.307 144.909 359.456 145.288 359.637L145.409 359.713C145.527 359.769 145.644 359.824 145.74 359.884C146.228 360.193 146.507 360.653 146.608 361.305C146.867 363.12 146.424 364.093 145.275 364.26C144.676 364.336 144.068 363.859 143.423 362.807L143.271 362.596C142.587 361.633 142.055 361.184 141.681 361.233C141.357 361.295 141.081 361.613 140.847 362.225C140.468 363.276 140.323 364.171 140.429 364.903C140.508 365.351 140.749 365.959 141.187 366.709L141.601 367.407C141.867 367.859 142.293 368.356 142.895 368.905C143.496 369.456 144.124 369.815 144.815 369.984L145.204 372.735C145.281 373.333 145.355 373.759 145.407 374.039C145.472 374.325 145.555 374.644 145.693 374.996C145.823 375.364 145.993 375.603 146.205 375.719C146.417 375.833 146.695 375.876 147.009 375.827C147.339 375.788 147.58 375.675 147.749 375.496C147.919 375.32 148.032 375.048 148.053 374.684C148.099 374.313 148.103 373.975 148.073 373.691C148.039 373.384 147.988 372.953 147.907 372.389L147.831 371.848L147.755 371.308L147.511 369.559C148.435 368.967 149.144 367.933 149.632 366.437C149.727 366.137 149.821 365.836 149.875 365.511C149.915 365.325 149.941 365.135 149.976 364.929C150.147 363.727 150.111 362.339 149.88 360.751C149.813 360.253 149.731 359.783 149.635 359.364C149.591 359.164 149.559 358.973 149.505 358.788C149.317 358.061 149.105 357.436 148.843 356.889C148.381 355.879 147.879 355.2 147.357 354.852C146.836 354.505 146.273 354.225 145.684 353.987C145.072 353.753 144.539 353.605 144.048 353.543C143.579 353.475 143.136 353.271 142.776 352.912C142.393 352.555 142.157 352.028 142.055 351.319C141.968 350.732 142.027 350.219 142.24 349.823C142.447 349.403 142.7 349.183 142.992 349.139C143.276 349.109 143.513 349.125 143.737 349.192C143.953 349.269 144.111 349.351 144.229 349.464C144.335 349.568 144.459 349.704 144.587 349.86C144.729 350.025 144.812 350.135 144.849 350.196C145.269 350.612 145.625 350.8 145.896 350.763C146.335 350.697 146.667 350.052 146.92 348.808C147.041 348.164 147.095 347.628 147.103 347.197C147.12 347.017 147.115 346.844 147.093 346.699C147.088 346.676 147.079 346.632 147.065 346.623C146.992 346.197 146.721 345.723 146.275 345.139L146.157 345.025L145.908 344.699C145.739 344.515 145.452 344.277 145.053 344.007C144.641 343.728 144.213 343.535 143.756 343.416L143.404 340.936C143.297 340.205 143.203 339.632 143.117 339.256C143.032 338.88 142.857 338.523 142.592 338.223C142.335 337.909 142.001 337.775 141.585 337.835" fill="#f7e0bb" fill-rule="nonzero" opacity="1" stroke="none"/>
<path d="M138.661 367.017C125.419 359.848 116.189 350.268 112.027 338.34C98.2848 298.965 143.675 245.251 220.044 202.579" fill="none" opacity="1" stroke="#15213a" stroke-linecap="butt" stroke-linejoin="miter" stroke-width="0.543203"/>
<path d="M98.1108 570.448L849.415 570.448" fill="none" opacity="1" stroke="#162235" stroke-linecap="round" stroke-linejoin="round" stroke-width="0.666667"/>
</g>
</svg>
